<?xml version="1.0" encoding="UTF-8"?>
<svg width="12px" height="29px" viewBox="0 0 12 29" version="1.1" xmlns="http://www.w3.org/2000/svg" xmlns:xlink="http://www.w3.org/1999/xlink">
    <title>筷子备份</title>
    <g id="页面-1" stroke="none" stroke-width="1" fill="none" fill-rule="evenodd">
        <g id="酷卡首页切图" transform="translate(-223.000000, -422.000000)" fill-rule="nonzero">
            <g id="筷子备份" transform="translate(223.000000, 422.000000)">
                <g id="编组-4" transform="translate(0.000000, 2.889462)">
                    <polygon id="路径" fill="#EAD9C3" points="0.691556001 0.379288136 2.92858933 0.794913136 10.0937108 0.760538136 11.5790529 0.426163136 11.3896267 4.02928814 3.16311701 3.57616314 0.520170383 3.96678814"></polygon>
                    <path d="M0.778752192,1.09491314 C0.778752192,1.13978627 0.813752733,1.17616314 0.856928088,1.17616314 C0.900103443,1.17616314 0.935103984,1.13978627 0.935103984,1.09491314 C0.935103984,1.05004 0.900103443,1.01366314 0.856928088,1.01366314 C0.813752733,1.01366314 0.778752192,1.05004 0.778752192,1.09491314 L0.778752192,1.09491314 Z" id="路径" fill="#686767"></path>
                    <path d="M5.28734769,1.3150046 C5.31504788,1.31871713 5.34254959,1.30678866 5.35949318,1.28371253 C5.37643678,1.26063641 5.38024812,1.22991843 5.36949152,1.20312978 C5.35873492,1.17634113 5.33504456,1.15755163 5.30734436,1.1538391 C5.27964417,1.15012658 5.25214247,1.16205505 5.23519887,1.18513117 C5.21825528,1.2082073 5.21444394,1.23892527 5.22520054,1.26571393 C5.23595714,1.29250258 5.2596475,1.31129208 5.28734769,1.3150046 L5.28734769,1.3150046 Z" id="路径" fill="#686767"></path>
                    <path d="M3.67175997,1.03281357 C3.69946016,1.03652611 3.72696187,1.02459764 3.74390547,1.00152152 C3.76084906,0.978445391 3.76466041,0.94772742 3.75390382,0.920938764 C3.74314722,0.894150109 3.71945686,0.875360603 3.69175667,0.871648073 C3.66405648,0.867935541 3.63655477,0.879864006 3.61961118,0.902940131 C3.60266758,0.926016255 3.59885623,0.956734227 3.60961282,0.983522882 C3.62036942,1.01031154 3.64405978,1.02910104 3.67175997,1.03281357 L3.67175997,1.03281357 Z" id="路径" fill="#686767"></path>
                    <path d="M7.27348606,1.53013889 C7.28131111,1.55800879 7.30284958,1.57942154 7.32998597,1.58630901 C7.35712237,1.59319647 7.3857327,1.58451194 7.40503684,1.56352767 C7.42434099,1.5425434 7.43140525,1.51244842 7.42356788,1.48458226 C7.41574283,1.45671236 7.39420436,1.4352996 7.36706797,1.42841214 C7.33993157,1.42152468 7.31132124,1.43020921 7.2920171,1.45119348 C7.27271295,1.47217775 7.26564869,1.50227272 7.27348606,1.53013889 L7.27348606,1.53013889 Z" id="路径" fill="#686767"></path>
                    <path d="M6.24891972,0.958207417 C6.25674476,0.986077321 6.27828324,1.00749007 6.30541963,1.01437754 C6.33255602,1.021265 6.36116635,1.01258047 6.3804705,0.991596201 C6.39977464,0.970611932 6.40683891,0.940516954 6.39900153,0.912650792 C6.39117649,0.884780888 6.36963802,0.863368135 6.34250162,0.856480672 C6.31536523,0.849593208 6.2867549,0.858277739 6.26745075,0.879262008 C6.24814661,0.900246277 6.24108235,0.930341255 6.24891972,0.958207417 L6.24891972,0.958207417 Z" id="路径" fill="#686767"></path>
                    <path d="M10.6470597,1.20164092 C10.6548848,1.22951082 10.6764232,1.25092357 10.7035596,1.25781104 C10.730696,1.2646985 10.7593063,1.25601397 10.7786105,1.2350297 C10.7979146,1.21404543 10.8049789,1.18395045 10.7971415,1.15608429 C10.7893165,1.12821439 10.767778,1.10680163 10.7406416,1.09991417 C10.7135052,1.09302671 10.6848949,1.10171124 10.6655907,1.12269551 C10.6462866,1.14367978 10.6392223,1.17377475 10.6470597,1.20164092 L10.6470597,1.20164092 Z" id="路径" fill="#686767"></path>
                    <path d="M11.4264755,1.5611497 C11.4343005,1.5890196 11.455839,1.61043236 11.4829754,1.61731982 C11.5101118,1.62420728 11.5387221,1.61552275 11.5580262,1.59453848 C11.5773304,1.57355421 11.5843947,1.54345924 11.5765573,1.51559307 C11.5687322,1.48772317 11.5471938,1.46631042 11.5200574,1.45942295 C11.492921,1.45253549 11.4643107,1.46122002 11.4450065,1.48220429 C11.4257024,1.50318856 11.4186381,1.53328354 11.4264755,1.5611497 L11.4264755,1.5611497 Z" id="路径" fill="#686767"></path>
                    <path d="M7.92989635,2.21415923 C7.95759654,2.21787176 7.98509825,2.2059433 8.00204185,2.18286717 C8.01898545,2.15979105 8.0227968,2.12907308 8.0120402,2.10228442 C8.0012836,2.07549576 7.97759324,2.05670626 7.94989305,2.05299373 C7.92219286,2.0492812 7.89469115,2.06120966 7.87774755,2.08428579 C7.86080395,2.10736191 7.8569926,2.13807988 7.8677492,2.16486854 C7.87850579,2.1916572 7.90219615,2.2104467 7.92989635,2.21415923 L7.92989635,2.21415923 Z" id="路径" fill="#686767"></path>
                    <path d="M9.47231856,1.94078957 C9.50001875,1.94450211 9.52752046,1.93257364 9.54446406,1.90949752 C9.56140766,1.88642139 9.56521901,1.85570342 9.55446241,1.82891476 C9.54370581,1.80212611 9.52001545,1.7833366 9.49231526,1.77962407 C9.46461507,1.77591154 9.43711336,1.78784 9.42016976,1.81091613 C9.40322616,1.83399225 9.39941481,1.86471023 9.41017141,1.89149888 C9.420928,1.91828754 9.44461836,1.93707705 9.47231856,1.94078957 L9.47231856,1.94078957 Z" id="路径" fill="#686767"></path>
                    <path d="M8.33439109,1.03173254 C8.37721188,1.03747162 8.4164014,1.00604593 8.42192333,0.961541308 C8.42744527,0.917036684 8.39720858,0.876306118 8.35438779,0.870567042 C8.3266876,0.866854511 8.29918589,0.878782976 8.2822423,0.9018591 C8.2652987,0.924935225 8.26148735,0.955653195 8.27224395,0.98244185 C8.28300054,1.00923051 8.3066909,1.02802001 8.33439109,1.03173254 L8.33439109,1.03173254 Z" id="路径" fill="#686767"></path>
                    <path d="M5.15479703,2.06226807 C5.19761782,2.06800714 5.23680733,2.03658145 5.24232926,1.99207682 C5.24785119,1.9475722 5.21761449,1.90684164 5.17479371,1.90110257 C5.14709351,1.89739005 5.11959181,1.90931852 5.10264821,1.93239464 C5.08570462,1.95547077 5.08189328,1.98618874 5.09264988,2.0129774 C5.10340648,2.03976605 5.12709684,2.05855555 5.15479703,2.06226807 L5.15479703,2.06226807 Z" id="路径" fill="#686767"></path>
                    <path d="M3.97958015,2.21489932 C4.00728034,2.21861185 4.03478204,2.20668338 4.05172564,2.18360725 C4.06866923,2.16053113 4.07248058,2.12981315 4.06172397,2.1030245 C4.05096737,2.07623585 4.02727701,2.05744635 3.99957682,2.05373382 C3.97187663,2.0500213 3.94437492,2.06194977 3.92743133,2.08502589 C3.91048774,2.10810202 3.90667639,2.13881999 3.91743299,2.16560865 C3.92818959,2.1923973 3.95187995,2.2111868 3.97958015,2.21489932 L3.97958015,2.21489932 Z" id="路径" fill="#686767"></path>
                    <path d="M0.334104144,1.87021692 C0.337269585,1.89906813 0.355009166,1.92397035 0.380636392,1.93553731 C0.406263618,1.94710427 0.435882207,1.94357736 0.458328165,1.92628597 C0.480774124,1.90899457 0.49263484,1.88056762 0.489439709,1.85171995 C0.486274269,1.82286874 0.468534688,1.79796652 0.442907462,1.78639956 C0.417280236,1.7748326 0.387661647,1.7783595 0.365215688,1.7956509 C0.34276973,1.81294229 0.330909014,1.84136924 0.334104144,1.87021692 L0.334104144,1.87021692 Z" id="路径" fill="#686767"></path>
                    <path d="M11.5245441,1.03821839 C11.542855,1.06013727 11.5710261,1.07023825 11.5984457,1.06471639 C11.6258653,1.05919453 11.6483676,1.03888873 11.6574763,1.01144798 C11.6665849,0.984007237 11.6609161,0.953600453 11.6426051,0.931681573 C11.6242942,0.909762689 11.596123,0.899661707 11.5687035,0.905183568 C11.5412839,0.91070543 11.5187816,0.931011233 11.5096729,0.958451978 C11.5005643,0.985892722 11.5062331,1.01629951 11.5245441,1.03821839 L11.5245441,1.03821839 Z" id="路径" fill="#AEAFAF"></path>
                    <path d="M8.09197945,1.19620504 C8.09553962,1.22500301 8.11361491,1.24963787 8.13939372,1.26082607 C8.16517252,1.27201428 8.19473649,1.26805522 8.21694456,1.25044087 C8.23915262,1.23282651 8.25062917,1.20423422 8.24704931,1.17543889 C8.24348914,1.14664092 8.22541385,1.12200606 8.19963505,1.11081785 C8.17385624,1.09962965 8.14429227,1.10358871 8.12208421,1.12120306 C8.09987615,1.13881742 8.0883996,1.16740971 8.09197945,1.19620504 L8.09197945,1.19620504 Z" id="路径" fill="#AEAFAF"></path>
                    <path d="M9.70962468,0.914669979 C9.71319384,0.943459817 9.73126996,0.968083722 9.75704394,0.979266106 C9.78281792,0.99044849 9.81237408,0.986490483 9.83457889,0.968883027 C9.8567837,0.951275572 9.86826373,0.92269366 9.86469456,0.893903823 C9.85917711,0.849398595 9.81999075,0.817968642 9.77716939,0.823703058 C9.73434802,0.829437473 9.70410722,0.870164751 9.70962468,0.914669979 L9.70962468,0.914669979 Z" id="路径" fill="#AEAFAF"></path>
                    <path d="M6.09735882,1.53948851 C6.12417375,1.54764715 6.15313962,1.54031178 6.1733379,1.52024741 C6.19353618,1.50018304 6.2018958,1.47044039 6.19526565,1.4422308 C6.18863549,1.4140212 6.16802365,1.39163382 6.14119965,1.38350745 C6.11438472,1.3753488 6.08541885,1.38268418 6.06522056,1.40274855 C6.04502228,1.42281292 6.03666266,1.45255557 6.04329282,1.48076516 C6.04992297,1.50897476 6.07053481,1.53136214 6.09735882,1.53948851 L6.09735882,1.53948851 Z" id="路径" fill="#AEAFAF"></path>
                    <path d="M7.00117031,1.96445892 C7.02797944,1.97259828 7.0569301,1.96525445 7.07711686,1.94519377 C7.09730363,1.9251331 7.10565964,1.89540327 7.09903728,1.86720323 C7.09241492,1.83900318 7.07182027,1.81661719 7.04501115,1.80847782 C7.01820202,1.80033846 6.98925136,1.80768229 6.96906459,1.82774297 C6.94887783,1.84780364 6.94052181,1.87753347 6.94714418,1.90573351 C6.95376654,1.93393356 6.97436119,1.95631955 7.00117031,1.96445892 Z" id="路径" fill="#AEAFAF"></path>
                    <path d="M7.12229782,0.964540917 C7.14911275,0.972699561 7.17807862,0.965364183 7.19827691,0.945299815 C7.21847519,0.925235447 7.22683481,0.8954928 7.22020465,0.867283203 C7.2135745,0.839073607 7.19296266,0.816686223 7.16613865,0.808559854 C7.13932372,0.800401211 7.11035785,0.807736588 7.09015957,0.827800956 C7.06996128,0.847865324 7.06160166,0.877607972 7.06823182,0.905817568 C7.07486198,0.934027165 7.09547382,0.956414549 7.12229782,0.964540917 L7.12229782,0.964540917 Z" id="路径" fill="#AEAFAF"></path>
                    <path d="M4.0421583,1.06436073 C4.06896742,1.07250009 4.09791808,1.06515626 4.11810485,1.04509559 C4.13829161,1.02503491 4.14664762,0.995305079 4.14002526,0.967105038 C4.1334029,0.938904997 4.11280825,0.916519 4.08599913,0.908379636 C4.04455581,0.895797269 4.00114526,0.920514802 3.98903895,0.963587792 C3.97693264,1.00666078 4.00071498,1.05177836 4.0421583,1.06436073 L4.0421583,1.06436073 Z" id="路径" fill="#AEAFAF"></path>
                    <path d="M2.725246,1.20936876 C2.75205513,1.21750813 2.78100579,1.21016429 2.80119256,1.19010362 C2.82137932,1.17004294 2.82973533,1.14031311 2.82311297,1.11211307 C2.81649061,1.08391303 2.79589596,1.06152703 2.76908684,1.05338767 C2.74227771,1.0452483 2.71332705,1.05259213 2.69314029,1.07265281 C2.67295352,1.09271349 2.66459751,1.12244332 2.67121987,1.15064336 C2.67784223,1.1788434 2.69843688,1.2012294 2.725246,1.20936876 L2.725246,1.20936876 Z" id="路径" fill="#AEAFAF"></path>
                    <path d="M3.90960442,1.8240911 C3.91317359,1.85288094 3.93124971,1.87750484 3.95702369,1.88868722 C3.98279767,1.8998696 4.01235382,1.8959116 4.03455863,1.87830414 C4.05676344,1.86069669 4.06824347,1.83211478 4.06467431,1.80332495 C4.05915685,1.75881972 4.0199705,1.72738977 3.97714913,1.73312418 C3.93432776,1.7388586 3.90408697,1.77958588 3.90960442,1.8240911 Z" id="路径" fill="#AEAFAF"></path>
                    <path d="M0.644108945,1.95615548 C0.668296656,1.97066939 0.698097144,1.97066939 0.722284853,1.95615547 C0.746472561,1.94164155 0.7613728,1.91481873 0.7613728,1.88579089 C0.7613728,1.85676306 0.746472552,1.82994024 0.722284841,1.81542632 C0.684893879,1.79298976 0.637082245,1.80630462 0.615494568,1.8451659 C0.59390689,1.88402718 0.606717983,1.93371891 0.644108945,1.95615548 Z" id="路径" fill="#AEAFAF"></path>
                    <path d="M5.04607625,0.914769917 C5.04964541,0.943559755 5.06772154,0.96818366 5.09349552,0.979366044 C5.1192695,0.990548428 5.14882565,0.98659042 5.17103047,0.968982965 C5.19323528,0.951375509 5.20471531,0.922793597 5.20114614,0.894003761 C5.19757698,0.865213923 5.17950085,0.840590018 5.15372687,0.829407634 C5.12795289,0.81822525 5.09839674,0.822183257 5.07619192,0.839790713 C5.05398711,0.857398168 5.04250708,0.88598008 5.04607625,0.914769917 Z" id="路径" fill="#AEAFAF"></path>
                    <path d="M8.227425,1.94599114 C8.23098516,1.9747891 8.24906045,1.99942397 8.27483926,2.01061217 C8.30061807,2.02180037 8.33018204,2.01784131 8.3523901,2.00022696 C8.37459816,1.9826126 8.38607471,1.95402031 8.38249485,1.92522498 C8.37893469,1.89642701 8.3608594,1.87179215 8.33508059,1.86060395 C8.30930178,1.84941575 8.27973781,1.8533748 8.25752975,1.87098916 C8.23532169,1.88860351 8.22384514,1.91719581 8.227425,1.94599114 L8.227425,1.94599114 Z" id="路径" fill="#AEAFAF"></path>
                    <path d="M3.68319028,3.04110657 C3.70427972,3.06014081 3.73353806,3.06603464 3.75994259,3.05656764 C3.78634713,3.04710064 3.8058858,3.02371128 3.81119767,2.9952112 C3.81650954,2.96671111 3.8067875,2.93743077 3.78569418,2.91840117 C3.76460474,2.89936693 3.7353464,2.8934731 3.70894187,2.9029401 C3.68253733,2.9124071 3.66299866,2.93579646 3.65768679,2.96429654 C3.65237492,2.99279663 3.66209696,3.02207697 3.68319028,3.04110657 L3.68319028,3.04110657 Z" id="路径" fill="#686767"></path>
                    <path d="M2.44175705,2.53917882 C2.46284695,2.55820941 2.49210339,2.56410063 2.51850575,2.55463333 C2.54490811,2.54516602 2.56444525,2.5217785 2.56975771,2.49328061 C2.57507016,2.46478272 2.56535086,2.43550397 2.54426096,2.41647339 C2.52317106,2.3974428 2.49391462,2.39155157 2.46751226,2.40101888 C2.4411099,2.41048618 2.42157276,2.43387371 2.4162603,2.4623716 C2.41094784,2.49086949 2.42066715,2.52014824 2.44175705,2.53917882 L2.44175705,2.53917882 Z" id="路径" fill="#686767"></path>
                    <path d="M5.89943777,2.7564712 C5.92713797,2.76018373 5.95463967,2.74825526 5.97158327,2.72517913 C5.98852686,2.702103 5.9923382,2.67138503 5.9815816,2.64459638 C5.970825,2.61780772 5.94713464,2.59901822 5.91943445,2.5953057 C5.89173425,2.59159317 5.86423255,2.60352164 5.84728896,2.62659777 C5.83034536,2.6496739 5.82653402,2.68039187 5.83729062,2.70718052 C5.84804722,2.73396917 5.87173758,2.75275867 5.89943777,2.7564712 L5.89943777,2.7564712 Z" id="路径" fill="#686767"></path>
                    <path d="M4.28382383,2.4742492 C4.31152403,2.47796173 4.33902573,2.46603326 4.35596933,2.44295713 C4.37291292,2.419881 4.37672426,2.38916303 4.36596766,2.36237438 C4.35521106,2.33558572 4.3315207,2.31679622 4.30382051,2.3130837 C4.27612031,2.30937117 4.24861861,2.32129964 4.23167501,2.34437577 C4.21473142,2.3674519 4.21092008,2.39816987 4.22167668,2.42495852 C4.23243328,2.45174717 4.25612364,2.47053667 4.28382383,2.4742492 L4.28382383,2.4742492 Z" id="路径" fill="#686767"></path>
                    <path d="M7.88446028,2.97369226 C7.89228532,3.00156216 7.91382379,3.02297492 7.94096019,3.02986238 C7.96809658,3.03674984 7.99670691,3.02806531 8.01601105,3.00708105 C8.0353152,2.98609678 8.04237946,2.9560018 8.03454209,2.92813564 C8.02671704,2.90026573 8.00517857,2.87885298 7.97804218,2.87196552 C7.95090579,2.86507805 7.92229546,2.87376258 7.90299131,2.89474685 C7.88368717,2.91573112 7.8766229,2.9458261 7.88446028,2.97369226 Z" id="路径" fill="#686767"></path>
                    <path d="M6.98190561,3.39525198 C6.98973065,3.42312188 7.01126913,3.44453464 7.03840552,3.4514221 C7.06554191,3.45830956 7.09415224,3.44962503 7.11345639,3.42864076 C7.13276053,3.40765649 7.13982479,3.37756152 7.13198742,3.34969535 C7.12416238,3.32182545 7.1026239,3.3004127 7.07548751,3.29352523 C7.04835112,3.28663777 7.01974079,3.2953223 7.00043664,3.31630657 C6.9811325,3.33729084 6.97406824,3.36738582 6.98190561,3.39525198 L6.98190561,3.39525198 Z" id="路径" fill="#686767"></path>
                    <path d="M6.85905098,2.39876114 C6.86687603,2.42663104 6.8884145,2.44804379 6.9155509,2.45493126 C6.94268729,2.46181872 6.97129762,2.45313419 6.99060176,2.43214992 C7.00990591,2.41116565 7.01697017,2.38107067 7.0091328,2.35320451 C7.00130775,2.32533461 6.97976928,2.30392185 6.95263289,2.29703439 C6.9254965,2.29014693 6.89688616,2.29883146 6.87758202,2.31981573 C6.85827788,2.3408 6.85121361,2.37089497 6.85905098,2.39876114 L6.85905098,2.39876114 Z" id="路径" fill="#686767"></path>
                    <path d="M8.54198643,3.65562582 C8.58480722,3.6613649 8.62399674,3.62993921 8.62951867,3.58543459 C8.63504061,3.54092996 8.60480392,3.5001994 8.56198313,3.49446032 C8.53428294,3.49074779 8.50678123,3.50267625 8.48983763,3.52575238 C8.47289403,3.5488285 8.46908268,3.57954648 8.47983928,3.60633513 C8.49059588,3.63312379 8.51428624,3.65191329 8.54198643,3.65562582 L8.54198643,3.65562582 Z" id="路径" fill="#686767"></path>
                    <path d="M10.0814266,3.38185651 C10.1091268,3.38556904 10.1366285,3.37364058 10.1535721,3.35056445 C10.1705157,3.32748833 10.174327,3.29677036 10.1635704,3.2699817 C10.1528138,3.24319305 10.1291235,3.22440354 10.1014233,3.22069101 C10.0737231,3.21697848 10.0462214,3.22890694 10.0292778,3.25198307 C10.0123342,3.27505919 10.0085228,3.30577716 10.0192794,3.33256582 C10.030036,3.35935448 10.0537264,3.37814398 10.0814266,3.38185651 L10.0814266,3.38185651 Z" id="路径" fill="#686767"></path>
                    <path d="M5.76390504,3.50333501 C5.79160523,3.50704754 5.81910694,3.49511908 5.83605053,3.47204295 C5.85299413,3.44896683 5.85680548,3.41824886 5.84604888,3.3914602 C5.83529229,3.36467155 5.81160193,3.34588204 5.78390174,3.34216951 C5.74108095,3.33643044 5.70189143,3.36785612 5.6963695,3.41236075 C5.69084756,3.45686537 5.72108425,3.49759594 5.76390504,3.50333501 L5.76390504,3.50333501 Z" id="路径" fill="#686767"></path>
                    <path d="M4.59167381,3.6563077 C4.63449459,3.66204677 4.67368411,3.63062109 4.67920605,3.58611646 C4.68472799,3.54161184 4.65449129,3.50088127 4.61167051,3.4951422 C4.56884972,3.48940312 4.5296602,3.52082881 4.52413827,3.56533343 C4.51861633,3.60983806 4.54885302,3.65056862 4.59167381,3.6563077 L4.59167381,3.6563077 Z" id="路径" fill="#686767"></path>
                    <path d="M2.04786299,3.43288329 C2.05277753,3.47746478 2.09153462,3.50946453 2.13442936,3.50435673 C2.1773241,3.49924893 2.20811313,3.45896781 2.20319859,3.41438632 C2.20001944,3.38554716 2.18227838,3.36066142 2.1566583,3.34910333 C2.13103823,3.33754524 2.10143143,3.34107074 2.07899051,3.35835181 C2.05654958,3.37563289 2.04468384,3.40404413 2.04786299,3.43288329 L2.04786299,3.43288329 Z" id="路径" fill="#686767"></path>
                    <path d="M0.944329702,3.31083998 C0.947508854,3.33967914 0.965249909,3.36456488 0.990869985,3.37612297 C1.01649006,3.38768106 1.04609686,3.38415556 1.06853778,3.36687449 C1.09097871,3.34959341 1.10284445,3.32118218 1.0996653,3.29234301 C1.09475075,3.24776152 1.05599367,3.21576178 1.01309893,3.22086957 C0.970204192,3.22597737 0.939415159,3.26625849 0.944329702,3.31083998 Z" id="路径" fill="#686767"></path>
                    <path d="M10.8949163,2.98514439 C10.9132272,3.00706327 10.9413984,3.01716425 10.968818,3.01164239 C10.9962375,3.00612053 11.0187398,2.98581473 11.0278485,2.95837398 C11.0369571,2.93093324 11.0312883,2.90052645 11.0129774,2.87860757 C10.9946664,2.85668869 10.9664953,2.84658771 10.9390757,2.85210957 C10.9116561,2.85763143 10.8891538,2.87793723 10.8800452,2.90537798 C10.8709365,2.93281872 10.8766054,2.96322551 10.8949163,2.98514439 Z" id="路径" fill="#AEAFAF"></path>
                    <path d="M6.70657783,2.9804507 C6.73338696,2.98859006 6.76233762,2.98124623 6.78252438,2.96118555 C6.80271115,2.94112488 6.81106716,2.91139505 6.8044448,2.88319501 C6.79782244,2.85499497 6.77722779,2.83260897 6.75041866,2.8244696 C6.72360954,2.81633024 6.69465887,2.82367407 6.67447211,2.84373475 C6.65428535,2.86379543 6.64592933,2.89352525 6.65255169,2.9217253 C6.65917406,2.94992534 6.6797687,2.97231133 6.70657783,2.9804507 L6.70657783,2.9804507 Z" id="路径" fill="#AEAFAF"></path>
                    <path d="M7.61036046,3.40544357 C7.63716959,3.41358294 7.66612025,3.40623911 7.68630701,3.38617843 C7.70649378,3.36611775 7.71484979,3.33638792 7.70822743,3.30818788 C7.70160507,3.27998784 7.68101042,3.25760184 7.65420129,3.24946248 C7.62739217,3.24132311 7.5984415,3.24866695 7.57825474,3.26872762 C7.55806798,3.2887883 7.54971196,3.31851813 7.55633432,3.34671817 C7.56295669,3.37491821 7.58355133,3.39730421 7.61036046,3.40544357 Z" id="路径" fill="#AEAFAF"></path>
                    <path d="M7.73440297,2.40637932 C7.76121209,2.41451869 7.79016275,2.40717486 7.81034952,2.38711418 C7.83053628,2.3670535 7.8388923,2.33732367 7.83226993,2.30912363 C7.82564757,2.28092359 7.80505292,2.25853759 7.7782438,2.25039823 C7.75143467,2.24225886 7.72248401,2.24960269 7.70229724,2.26966337 C7.68211048,2.28972405 7.67375446,2.31945388 7.68037683,2.34765392 C7.68699919,2.37585396 7.70759384,2.39823996 7.73440297,2.40637932 L7.73440297,2.40637932 Z" id="路径" fill="#AEAFAF"></path>
                    <path d="M4.65421293,2.5061916 C4.69565625,2.51877397 4.7390668,2.49405644 4.75117311,2.45098345 C4.76327942,2.40791046 4.73949708,2.36279288 4.69805376,2.35021051 C4.67124464,2.34207115 4.64229397,2.34941498 4.62210721,2.36947566 C4.60192045,2.38953633 4.59356443,2.41926616 4.60018679,2.4474662 C4.60680916,2.47566624 4.6274038,2.49805224 4.65421293,2.5061916 L4.65421293,2.5061916 Z" id="路径" fill="#AEAFAF"></path>
                    <path d="M3.33364354,2.65336054 C3.37508686,2.66594291 3.41849741,2.64122538 3.43060372,2.59815239 C3.44271003,2.5550794 3.41892769,2.50996182 3.37748437,2.49737945 C3.35067524,2.48924008 3.32172458,2.49658392 3.30153782,2.51664459 C3.28135106,2.53670527 3.27299504,2.5664351 3.2796174,2.59463514 C3.28623977,2.62283518 3.30683441,2.64522118 3.33364354,2.65336054 L3.33364354,2.65336054 Z" id="路径" fill="#AEAFAF"></path>
                    <path d="M2.55636355,3.01027654 C2.58317267,3.01841591 2.61212334,3.01107207 2.6323101,2.9910114 C2.65249686,2.97095072 2.66085288,2.94122089 2.65423051,2.91302085 C2.64760815,2.88482081 2.62701351,2.86243481 2.60020438,2.85429545 C2.57339525,2.84615608 2.54444459,2.85349991 2.52425782,2.87356059 C2.50407106,2.89362127 2.49571504,2.9233511 2.50233741,2.95155114 C2.50895977,2.97975118 2.52955442,3.00213718 2.55636355,3.01027654 L2.55636355,3.01027654 Z" id="路径" fill="#AEAFAF"></path>
                    <path d="M4.51985307,3.26469635 C4.52342224,3.29348619 4.54149836,3.31811009 4.56727234,3.32929247 C4.59304632,3.34047485 4.62260247,3.33651685 4.64480728,3.31890939 C4.66701209,3.30130194 4.67849212,3.27272003 4.67492296,3.2439302 C4.67135379,3.21514036 4.65327767,3.19051646 4.62750369,3.17933407 C4.60172971,3.16815169 4.57217355,3.17210969 4.54996874,3.18971715 C4.52776393,3.20732461 4.5162839,3.23590652 4.51985307,3.26469635 L4.51985307,3.26469635 Z" id="路径" fill="#AEAFAF"></path>
                    <path d="M0.368178973,2.68453689 C0.377332449,2.7119674 0.399873315,2.7322371 0.427307795,2.73770803 C0.454742274,2.74317895 0.482900748,2.7330196 0.50117263,2.71105819 C0.519444513,2.68909678 0.52505276,2.65867111 0.515884089,2.63124607 C0.506730613,2.60381556 0.484189747,2.58354586 0.456755267,2.57807493 C0.429320788,2.57260401 0.401162314,2.58276336 0.382890432,2.60472477 C0.364618549,2.62668618 0.359010302,2.65711185 0.368178973,2.68453689 L0.368178973,2.68453689 Z" id="路径" fill="#AEAFAF"></path>
                    <path d="M8.83767749,3.3865961 C8.84124666,3.41538594 8.85932277,3.44000984 8.88509675,3.45119223 C8.91087072,3.46237462 8.94042688,3.45841661 8.96263169,3.44080917 C8.98483651,3.42320172 8.99631654,3.39461981 8.99274738,3.36582998 C8.98722994,3.32132475 8.94804359,3.28989479 8.90522222,3.2956292 C8.86240085,3.30136361 8.83216005,3.34209088 8.83767749,3.3865961 Z" id="路径" fill="#AEAFAF"></path>
                    <path d="M11.3385117,4.28866314 C11.3144575,4.28866314 11.2934102,4.28866314 11.2693561,4.28553814 L9.14958657,4.05116314 C7.05988474,3.81991314 4.94011526,3.81991314 2.85041343,4.05116314 L0.730643949,4.28553814 C0.544224505,4.30741314 0.357805061,4.24491314 0.219493861,4.11366314 C0.081182661,3.98241314 0,3.79803814 0,3.60116314 L0,0.688663136 C0,0.494913136 0.081182661,0.307413136 0.219493861,0.176163136 C0.357805061,0.0449131357 0.544224505,-0.0175868643 0.730643949,0.00428813569 L1.84615385,0.129288136 C2.04460035,0.151163136 2.18892508,0.335538136 2.16787772,0.541788136 C2.14683037,0.748038136 1.96943122,0.898038136 1.77098472,0.876163136 L0.721623653,0.760538136 L0.721623653,3.53553814 L2.7752443,3.30741314 C4.91606114,3.06991314 7.08694563,3.06991314 9.22776247,3.30741314 L11.2813831,3.53553814 L11.2813831,0.760538136 L9.22776247,0.988663136 C7.07792533,1.22616314 4.98521674,1.22616314 2.8353796,0.988663136 C2.6369331,0.966788136 2.49260837,0.782413136 2.51365573,0.576163136 C2.53470308,0.369913136 2.71210223,0.219913136 2.91054873,0.241788136 C5.00927086,0.473038136 7.05086445,0.473038136 9.14958657,0.241788136 L11.2693561,0.00741313569 C11.4557755,-0.0144618643 11.6421949,0.0480381357 11.7805061,0.179288136 C11.9188173,0.310538136 12,0.494913136 12,0.691788136 L12,3.60428814 C12,3.79803814 11.9188173,3.98553814 11.7805061,4.11678814 C11.6602355,4.22616314 11.500877,4.28866314 11.3385117,4.28866314 Z" id="路径" fill="#3D6072"></path>
                    <path d="M3.9645118,3.20548673 C3.9886999,3.22000699 4.01850443,3.22001075 4.04269592,3.2054966 C4.06688741,3.19098245 4.08178968,3.16415599 4.08178798,3.13512464 C4.08178629,3.10609328 4.06688089,3.0792687 4.0426877,3.0647576 C4.0184996,3.05023735 3.98869507,3.05023358 3.96450358,3.06474773 C3.94031209,3.07926188 3.92541152,3.10608834 3.92541152,3.1351197 C3.92541152,3.16415105 3.94031861,3.19097563 3.9645118,3.20548673 L3.9645118,3.20548673 Z" id="路径" fill="#AEAFAF"></path>
                    <path d="M4.74548533,2.70195617 C4.75330668,2.72983064 4.77484554,2.75124867 4.80198465,2.75813853 C4.82912375,2.7650284 4.85773773,2.75634276 4.87704293,2.73535496 C4.89634812,2.71436716 4.90340999,2.68426752 4.89556715,2.65639957 C4.8877458,2.6285251 4.86620694,2.60710707 4.83906783,2.60021721 C4.81192872,2.59332734 4.78331475,2.60201298 4.76400955,2.62300078 C4.74470435,2.64398858 4.73764249,2.67408822 4.74548533,2.70195617 L4.74548533,2.70195617 Z" id="路径" fill="#686767"></path>
                    <path d="M4.15700088,1.4721662 C4.18470107,1.47587873 4.21220278,1.46395026 4.22914637,1.44087413 C4.24608997,1.417798 4.24990131,1.38708003 4.23914471,1.36029138 C4.22838811,1.33350272 4.20469775,1.31471322 4.17699755,1.3110007 C4.14929736,1.30728817 4.12179566,1.31921664 4.10485206,1.34229277 C4.08790847,1.3653689 4.08409712,1.39608687 4.09485373,1.42287552 C4.10561033,1.44966417 4.12930069,1.46845367 4.15700088,1.4721662 L4.15700088,1.4721662 Z" id="路径" fill="#686767"></path>
                    <path d="M4.46271852,2.33862167 C4.48102772,2.36054709 4.50920169,2.37065333 4.53662516,2.3651326 C4.56404864,2.35961187 4.5865542,2.33930312 4.59566231,2.31185821 C4.60477042,2.28441329 4.59909696,2.25400287 4.58077954,2.23208485 C4.56247034,2.21015943 4.53429637,2.20005319 4.5068729,2.20557392 C4.47944942,2.21109465 4.45694386,2.2314034 4.44783575,2.25884832 C4.43872764,2.28629323 4.4444011,2.31670365 4.46271852,2.33862167 L4.46271852,2.33862167 Z" id="路径" fill="#AEAFAF"></path>
                    <path d="M3.50015696,1.96381045 C3.50797831,1.99168492 3.52951717,2.01310295 3.55665628,2.01999282 C3.58379539,2.02688268 3.61240936,2.01819705 3.63171456,1.99720925 C3.65101976,1.97622145 3.65808162,1.9461218 3.65023878,1.91825385 C3.64241743,1.89037938 3.62087857,1.86896135 3.59373946,1.86207149 C3.56660036,1.85518163 3.53798638,1.86386726 3.51868118,1.88485506 C3.49937599,1.90584286 3.49231412,1.9359425 3.50015696,1.96381045 L3.50015696,1.96381045 Z" id="路径" fill="#686767"></path>
                    <path d="M7.99967501,2.93445226 C8.02742282,2.93775844 8.05475995,2.92542808 8.07138876,2.90210592 C8.08801757,2.87878375 8.09141174,2.84801297 8.08029274,2.82138463 C8.06917373,2.79475629 8.04523078,2.77631587 8.01748297,2.7730097 C7.98973515,2.76970352 7.96239803,2.78203388 7.94576922,2.80535604 C7.92914041,2.82867821 7.92574623,2.85944899 7.93686524,2.88607733 C7.94798425,2.91270567 7.9719272,2.93114609 7.99967501,2.93445226 L7.99967501,2.93445226 Z" id="路径" fill="#686767"></path>
                    <path d="M7.96274156,3.17667242 C7.97670634,3.20181126 8.00251432,3.21729743 8.03044388,3.21729743 C8.05837344,3.21729743 8.08418142,3.20181127 8.0981462,3.17667243 C8.11211099,3.15153359 8.11211099,3.12056126 8.09814621,3.09542242 C8.07655853,3.05656113 8.0287469,3.04324627 7.99135594,3.06568284 C7.95396497,3.08811941 7.94115388,3.13781113 7.96274156,3.17667242 L7.96274156,3.17667242 Z" id="路径" fill="#AEAFAF"></path>
                    <path d="M7.19547073,2.75562939 C7.22227986,2.76376875 7.25123052,2.75642492 7.27141728,2.73636424 C7.29160404,2.71630357 7.29996006,2.68657374 7.2933377,2.65837369 C7.28671533,2.63017365 7.26612069,2.60778766 7.23931156,2.59964829 C7.21250243,2.59150892 7.18355177,2.59885275 7.16336501,2.61891343 C7.14317824,2.63897411 7.13482222,2.66870394 7.14144459,2.69690398 C7.14806695,2.72510403 7.1686616,2.74749002 7.19547073,2.75562939 L7.19547073,2.75562939 Z" id="路径" fill="#686767"></path>
                    <path d="M7.46236793,2.3474257 C7.48345737,2.36645994 7.51271571,2.37235377 7.53912024,2.36288677 C7.56552478,2.35341977 7.58506345,2.33003041 7.59037532,2.30153032 C7.59568719,2.27303024 7.58596515,2.2437499 7.56487183,2.22472029 C7.54378239,2.20568605 7.51452405,2.19979222 7.48811952,2.20925922 C7.46171498,2.21872622 7.44217631,2.24211558 7.43686444,2.27061567 C7.43155257,2.29911575 7.44127461,2.32839609 7.46236793,2.3474257 L7.46236793,2.3474257 Z" id="路径" fill="#AEAFAF"></path>
                    <path d="M8.4402853,2.02139848 C8.46709443,2.02953784 8.49604509,2.02219401 8.51623185,2.00213334 C8.53641862,1.98207266 8.54477463,1.95234283 8.53815227,1.92414279 C8.53152991,1.89594275 8.51093526,1.87355675 8.48412613,1.86541739 C8.44268282,1.85283502 8.39927226,1.87755255 8.38716595,1.92062554 C8.37505964,1.96369853 8.39884198,2.00881611 8.4402853,2.02139848 L8.4402853,2.02139848 Z" id="路径" fill="#686767"></path>
                </g>
                <g id="编组-4备份-2" transform="translate(6.772442, 0.000000)">
                    <path d="M1.01137845,4.41960075 C1.01914107,4.44747065 1.0405077,4.46888341 1.06742759,4.47577087 C1.09434747,4.48265833 1.12272954,4.4739738 1.14187967,4.45298953 C1.1610298,4.43200527 1.1680377,4.40191029 1.16026285,4.37404413 C1.15250024,4.34617422 1.13113361,4.32476147 1.10421372,4.317874 C1.07729384,4.31098654 1.04891177,4.31967107 1.02976164,4.34065534 C1.01061151,4.36163961 1.00360361,4.39173459 1.01137845,4.41960075 L1.01137845,4.41960075 Z" id="路径" fill="#686767"></path>
                    <path d="M1.66255163,5.10362109 C1.69003082,5.10733363 1.71731311,5.09540516 1.73412152,5.07232904 C1.75092994,5.04925291 1.75471088,5.01853494 1.7440401,4.99174628 C1.73336933,4.96495763 1.70986798,4.94616812 1.68238879,4.94245559 C1.6549096,4.93874306 1.62762731,4.95067152 1.61081889,4.97374765 C1.59401048,4.99682377 1.59022954,5.02754175 1.60090031,5.0543304 C1.61157109,5.08111906 1.63507244,5.09990857 1.66255163,5.10362109 L1.66255163,5.10362109 Z" id="路径" fill="#686767"></path>
                    <path d="M2.06381915,3.92119441 C2.10629829,3.92693348 2.14517514,3.8955078 2.15065302,3.85100317 C2.1561309,3.80649855 2.12613545,3.76576798 2.08365631,3.76002891 C2.05617712,3.75631638 2.02889483,3.76824484 2.01208642,3.79132096 C1.99527801,3.81439709 1.99149706,3.84511506 2.00216784,3.87190371 C2.01283861,3.89869237 2.03633996,3.91748188 2.06381915,3.92119441 L2.06381915,3.92119441 Z" id="路径" fill="#686767"></path>
                    <path d="M1.82334157,4.08566691 C1.82687333,4.11446487 1.84480441,4.13909974 1.87037754,4.15028794 C1.89595067,4.16147614 1.92527877,4.15751709 1.94730965,4.13990273 C1.96934053,4.12228837 1.98072551,4.09369608 1.97717422,4.06490075 C1.97364245,4.03610278 1.95571137,4.01146792 1.93013824,4.00027972 C1.90456511,3.98909152 1.87523701,3.99305057 1.85320614,4.01066493 C1.83117526,4.02827928 1.81979028,4.05687158 1.82334157,4.08566691 L1.82334157,4.08566691 Z" id="路径" fill="#AEAFAF"></path>
                    <path d="M0.74123535,4.85392078 C0.767830582,4.86206015 0.796550264,4.85471632 0.816575969,4.83465564 C0.836601675,4.81459496 0.844891023,4.78486513 0.838321496,4.75666509 C0.831751969,4.72846505 0.811321634,4.70607905 0.784726402,4.69793969 C0.75813117,4.68980032 0.729411488,4.69714415 0.709385783,4.71720483 C0.689360078,4.73726551 0.68107073,4.76699534 0.687640257,4.79519538 C0.694209784,4.82339542 0.714640118,4.84578142 0.74123535,4.85392078 Z" id="路径" fill="#AEAFAF"></path>
                    <path d="M0.861396452,3.85400278 C0.887997444,3.86216142 0.916732214,3.85482605 0.936769346,3.83476168 C0.956806477,3.81469731 0.965099401,3.78495466 0.958522144,3.75674507 C0.951944886,3.72853547 0.931497495,3.70614809 0.904887504,3.69802172 C0.878286512,3.68986308 0.849551742,3.69719845 0.829514611,3.71726282 C0.80947748,3.73732719 0.801184556,3.76706984 0.807761813,3.79527943 C0.81433907,3.82348903 0.834786461,3.84587641 0.861396452,3.85400278 L0.861396452,3.85400278 Z" id="路径" fill="#AEAFAF"></path>
                    <path d="M1.95770647,4.835453 C1.96123824,4.86425097 1.97916931,4.88888583 2.00474245,4.90007403 C2.03031558,4.91126223 2.05964368,4.90730318 2.08167455,4.88968882 C2.10370543,4.87207447 2.11509041,4.84348217 2.11153912,4.81468684 C2.10800736,4.78588888 2.09007628,4.76125401 2.06450315,4.75006581 C2.03893001,4.73887761 2.00960192,4.74283666 1.98757104,4.76045102 C1.96554016,4.77806538 1.95415518,4.80665767 1.95770647,4.835453 L1.95770647,4.835453 Z" id="路径" fill="#AEAFAF"></path>
                    <path d="M1.61747806,5.86315412 C1.62524068,5.89102403 1.64660731,5.91243678 1.6735272,5.91932425 C1.70044708,5.92621171 1.72882915,5.91752718 1.74797928,5.89654291 C1.76712941,5.87555864 1.77413731,5.84546366 1.76636246,5.8175975 C1.75859985,5.7897276 1.73723322,5.76831484 1.71031333,5.76142738 C1.68339345,5.75453992 1.65501138,5.76322445 1.63586125,5.78420872 C1.61671112,5.80519298 1.60970322,5.83528796 1.61747806,5.86315412 Z" id="路径" fill="#686767"></path>
                    <path d="M0.722124346,6.28471384 C0.72988696,6.31258375 0.75125359,6.3339965 0.778173478,6.34088396 C0.805093365,6.34777143 0.833475431,6.3390869 0.852625559,6.31810263 C0.871775688,6.29711836 0.878783589,6.26702338 0.871008746,6.23915722 C0.863246133,6.21128731 0.841879503,6.18987456 0.814959615,6.1829871 C0.788039728,6.17609963 0.759657662,6.18478417 0.740507534,6.20576843 C0.721357405,6.2267527 0.714349504,6.25684768 0.722124346,6.28471384 L0.722124346,6.28471384 Z" id="路径" fill="#686767"></path>
                    <path d="M0.600249908,5.288223 C0.608012521,5.3160929 0.629379152,5.33750566 0.656299039,5.34439312 C0.683218927,5.35128058 0.711600992,5.34259605 0.730751121,5.32161178 C0.749901249,5.30062752 0.75690915,5.27053254 0.749134308,5.24266637 C0.741371695,5.21479647 0.720005064,5.19338372 0.693085177,5.18649625 C0.666165289,5.17960879 0.637783224,5.18829332 0.618633095,5.20927759 C0.599482967,5.23026186 0.592475065,5.26035684 0.600249908,5.288223 L0.600249908,5.288223 Z" id="路径" fill="#686767"></path>
                    <path d="M2.26975821,6.54508769 C2.31223735,6.55082676 2.3511142,6.51940108 2.35659208,6.47489645 C2.36206996,6.43039183 2.33207451,6.38966126 2.28959537,6.38392219 C2.26211618,6.38020965 2.23483389,6.39213812 2.21802547,6.41521424 C2.20121706,6.43829037 2.19743612,6.46900834 2.20810689,6.495797 C2.21877767,6.52258565 2.24227902,6.54137516 2.26975821,6.54508769 L2.26975821,6.54508769 Z" id="路径" fill="#686767"></path>
                    <path d="M0.448993246,5.86991256 C0.475588478,5.87805193 0.50430816,5.8707081 0.524333865,5.85064742 C0.544359571,5.83058674 0.552648919,5.80085691 0.546079392,5.77265687 C0.539509865,5.74445683 0.51907953,5.72207083 0.492484298,5.71393147 C0.465889066,5.7057921 0.437169384,5.71313593 0.417143679,5.73319661 C0.397117974,5.75325729 0.388828626,5.78298712 0.395398153,5.81118716 C0.40196768,5.8393872 0.422398014,5.8617732 0.448993246,5.86991256 L0.448993246,5.86991256 Z" id="路径" fill="#AEAFAF"></path>
                    <path d="M1.34556513,6.29490544 C1.37216036,6.3030448 1.40088004,6.29570097 1.42090575,6.27564029 C1.44093145,6.25557962 1.4492208,6.22584979 1.44265128,6.19764975 C1.43608175,6.1694497 1.41565141,6.14706371 1.38905618,6.13892434 C1.36246095,6.13078498 1.33374127,6.13812881 1.31371556,6.15818949 C1.29368986,6.17825016 1.28540051,6.20797999 1.29197004,6.23618004 C1.29853956,6.26438008 1.3189699,6.28676607 1.34556513,6.29490544 Z" id="路径" fill="#AEAFAF"></path>
                    <path d="M1.46861797,5.29584119 C1.49521321,5.30398055 1.52393289,5.29663672 1.54395859,5.27657604 C1.5639843,5.25651537 1.57227364,5.22678554 1.56570412,5.1985855 C1.55913459,5.17038545 1.53870426,5.14799946 1.51210903,5.13986009 C1.48551379,5.13172073 1.45679411,5.13906456 1.4367684,5.15912523 C1.4167427,5.17918591 1.40845335,5.20891574 1.41502288,5.23711579 C1.4215924,5.26531583 1.44202274,5.28770183 1.46861797,5.29584119 L1.46861797,5.29584119 Z" id="路径" fill="#AEAFAF"></path>
                    <path d="M2.64880246,27.6875 C2.81583792,27.6875 2.95006284,27.54375 2.94708006,27.36875 L2.06716114,0.68125 C2.06417836,0.5125 1.92995344,0.375 1.76888354,0.375 L1.01722398,0.375 C0.856154074,0.375 0.721929154,0.509375 0.718946377,0.68125 L0.435582656,27.36875 C0.429617104,27.54375 0.563842024,27.6875 0.730877482,27.6875 L2.64880246,27.6875 Z" id="路径" fill="#54BDDD"></path>
                    <path d="M1.14250057,7.30625 C1.09477616,7.49375 0.945637355,7.64375 0.841240194,7.809375 C0.796498554,7.79375 0.75473969,7.778125 0.709998049,7.7625 C0.671221961,7.553125 0.602618113,7.34375 0.605600889,7.134375 C0.605600889,7.003125 0.692101393,6.846875 0.778601898,6.75 C0.81439521,6.7125 0.996344547,6.76875 1.03213786,6.8375 C1.10372448,6.978125 1.17829388,7.175 1.14250057,7.30625 Z M0.817377986,17.49375 C1.01722398,17.621875 0.939671803,17.815625 0.868085179,17.996875 C0.862119626,18.009375 0.841240194,18.015625 0.805446882,18.040625 C0.638411425,17.953125 0.4922554,17.8375 0.614549217,17.571875 C0.638411425,17.515625 0.76965357,17.465625 0.817377986,17.49375 Z M1.62571029,23.515625 C1.44674373,23.11875 1.44674373,23.11875 1.93890177,22.978125 C1.83748739,23.2125 1.8852118,23.49375 1.62571029,23.515625 Z M1.13355224,14.903125 C1.28269105,15.01875 1.40498486,15.115625 1.61377918,15.278125 C1.20513887,15.21875 1.20513887,15.21875 1.13355224,14.903125 Z M1.26181161,21.61875 C1.19619054,21.646875 1.12758669,21.675 1.06196562,21.7 C1.04705174,21.603125 1.03213786,21.50625 1.01722398,21.40625 C1.05600007,21.390625 1.09179338,21.375 1.13056947,21.359375 C1.17531111,21.446875 1.22005275,21.534375 1.26181161,21.61875 L1.26181161,21.61875 Z M1.46464038,18.065625 C1.48551981,18.134375 1.47060593,18.21875 1.47060593,18.29375 C1.44674373,18.296875 1.42288152,18.3 1.40200209,18.30625 C1.36024322,18.196875 1.32146713,18.0875 1.27970827,17.978125 C1.3005877,17.9625 1.31848436,17.946875 1.33936379,17.93125 C1.38410543,17.971875 1.44674373,18.009375 1.46464038,18.065625 L1.46464038,18.065625 Z M1.93890177,25.246875 C1.9478501,25.2875 1.95381565,25.328125 1.96276398,25.365625 C1.87029792,25.4 1.77783186,25.434375 1.68536581,25.465625 C1.67045193,25.415625 1.65852082,25.365625 1.64360694,25.31875 C1.74502133,25.29375 1.84345294,25.26875 1.93890177,25.246875 Z M2.04926448,24.9375 C1.93591899,24.95625 1.84643571,24.975 1.72115912,24.996875 C1.82555628,24.771875 1.90609123,24.684375 2.04926448,24.9375 Z M1.76888354,16.740625 C1.7987113,16.675 1.85240127,16.625 1.89416013,16.56875 C1.91205679,16.584375 1.92697067,16.2875 1.94486732,16.303125 C1.91503956,16.421875 1.88222903,16.85 1.85240127,16.96875 C1.8106424,16.959375 1.76888354,16.946875 1.73010745,16.9375 C1.73905578,16.871875 1.74203855,16.796875 1.76888354,16.740625 Z" id="形状" fill="#09A7AF"></path>
                    <path d="M1.93612345,0.784425 C1.93612345,0.742758333 1.63916966,0.642741667 1.04526207,0.484375 C0.854364409,0.540625 0.73982581,0.6125 0.73982581,0.690625 L0.778005343,14.678125 L2.49608433,14.6625 L1.93612345,0.784425 Z" id="路径" fill="#F2F0F0"></path>
                    <path d="M0.893747343,7.32799287 C0.911912174,7.34991176 0.939858561,7.36001274 0.96705937,7.35449089 C0.994260178,7.34896903 1.01658296,7.32866323 1.02561893,7.30122249 C1.03465491,7.27378175 1.0290313,7.24337497 1.01086646,7.22145609 C0.99270163,7.19953721 0.964755242,7.18943622 0.937554434,7.19495808 C0.910353625,7.20047994 0.888030846,7.22078574 0.878994872,7.24822648 C0.869958897,7.27566721 0.875582508,7.306074 0.893747343,7.32799287 Z" id="路径" fill="#686767"></path>
                    <path d="M1.06556789,10.8326161 C1.06909965,10.861414 1.08703073,10.8860489 1.11260386,10.8972371 C1.13817699,10.9084253 1.16750509,10.9044662 1.18953597,10.8868519 C1.21156684,10.8692375 1.22295183,10.8406452 1.21940054,10.8118499 C1.21586877,10.7830519 1.19793769,10.7584171 1.17236456,10.7472289 C1.14679143,10.7360407 1.11746333,10.7399997 1.09543246,10.7576141 C1.07340158,10.7752284 1.06201659,10.8038207 1.06556789,10.8326161 L1.06556789,10.8326161 Z" id="路径" fill="#686767"></path>
                    <path d="M1.78853911,12.0932406 C1.81513434,12.1013799 1.84385402,12.0940361 1.86387973,12.0739754 C1.88390543,12.0539147 1.89219478,12.0241849 1.88562525,11.9959849 C1.87905572,11.9677848 1.85862539,11.9453988 1.83203016,11.9372595 C1.80543493,11.9291201 1.77671524,11.9364639 1.75668954,11.9565246 C1.73666383,11.9765853 1.72837449,12.0063151 1.73494401,12.0345152 C1.74151354,12.0627152 1.76194387,12.0851012 1.78853911,12.0932406 Z" id="路径" fill="#686767"></path>
                    <path d="M1.78165945,10.6949205 C1.78520014,10.7237103 1.80313204,10.7483342 1.82870039,10.7595166 C1.85426873,10.770699 1.88358908,10.766741 1.90561673,10.7491335 C1.92764439,10.7315261 1.93903282,10.7029441 1.93549213,10.6741543 C1.93195144,10.6453645 1.91401954,10.6207406 1.88845119,10.6095582 C1.86288285,10.5983758 1.8335625,10.6023338 1.81153485,10.6199413 C1.7895072,10.6375487 1.77811876,10.6661306 1.78165945,10.6949205 L1.78165945,10.6949205 Z" id="路径" fill="#686767"></path>
                    <path d="M1.92462805,9.47320356 C1.92815822,9.50200298 1.94608914,9.52663981 1.97166313,9.53782906 C1.99723711,9.54901831 2.0265666,9.54505907 2.04859805,9.52744348 C2.07062951,9.5098279 2.08201388,9.48123375 2.0784607,9.45243744 C2.07493054,9.42363802 2.05699961,9.39900119 2.03142563,9.38781194 C2.00585164,9.37662269 1.97652215,9.38058193 1.9544907,9.39819752 C1.93245924,9.4158131 1.92107487,9.44440725 1.92462805,9.47320356 L1.92462805,9.47320356 Z" id="路径" fill="#686767"></path>
                    <path d="M1.84970445,6.97185912 C1.87723744,6.97517873 1.90436859,6.9628526 1.92087269,6.93952621 C1.9373768,6.91619981 1.94074498,6.88541912 1.92970784,6.85878477 C1.9186707,6.83215042 1.89490605,6.81371124 1.86737033,6.81041659 C1.83983733,6.80709699 1.81270618,6.81942312 1.79620208,6.84274951 C1.77969798,6.86607591 1.7763298,6.8968566 1.78736693,6.92349095 C1.79840407,6.9501253 1.82216872,6.96856448 1.84970445,6.97185912 L1.84970445,6.97185912 Z" id="路径" fill="#686767"></path>
                    <path d="M1.73177357,5.82391412 C1.7593,5.8272203 1.78641902,5.81488995 1.80291515,5.79156778 C1.81941129,5.76824562 1.82277839,5.73747484 1.81174809,5.7108465 C1.8007178,5.68421815 1.77696588,5.66577773 1.74943945,5.66247156 C1.72191302,5.65916538 1.694794,5.67149574 1.67829786,5.69481791 C1.66180172,5.71814007 1.65843462,5.74891085 1.66946492,5.77553919 C1.68049521,5.80216753 1.70424714,5.82060795 1.73177357,5.82391412 L1.73177357,5.82391412 Z" id="路径" fill="#686767"></path>
                    <path d="M1.08673558,13.8866414 C1.11422252,13.8903704 1.14151948,13.8784473 1.15833764,13.8553662 C1.17515581,13.832285 1.17893823,13.8015551 1.16825923,13.774759 C1.15758024,13.7479629 1.13406341,13.7291747 1.10657274,13.725476 C1.07908579,13.721747 1.05178883,13.7336701 1.03497067,13.7567512 C1.01815251,13.7798324 1.01437009,13.8105624 1.02504908,13.8373584 C1.03572807,13.8641545 1.0592449,13.8829427 1.08673558,13.8866414 L1.08673558,13.8866414 Z" id="路径" fill="#AEAFAF"></path>
                    <path d="M1.285967,11.697369 C1.29372594,11.7252435 1.31509296,11.7466615 1.34201554,11.7535514 C1.36893812,11.7604412 1.3973238,11.7517556 1.41647497,11.7307678 C1.43562615,11.70978 1.44263167,11.6796804 1.4348514,11.6518124 C1.42709245,11.6239379 1.40572544,11.6025199 1.37880286,11.59563 C1.35188028,11.5887402 1.3234946,11.5974258 1.30434342,11.6184136 C1.28519225,11.6394014 1.27818673,11.6695011 1.285967,11.697369 L1.285967,11.697369 Z" id="路径" fill="#AEAFAF"></path>
                    <path d="M0.832919532,9.56300647 C0.840687069,9.59087024 0.862053176,9.6122759 0.888969446,9.61916015 C0.915885716,9.6260444 0.944262928,9.61736136 0.963411661,9.59638184 C0.982560394,9.57540232 0.989571499,9.54531361 0.981803962,9.51744984 C0.969796389,9.47437619 0.926733413,9.44965629 0.885620113,9.46223641 C0.844506813,9.47481652 0.820911959,9.51993281 0.832919532,9.56300647 Z" id="路径" fill="#AEAFAF"></path>
                    <path d="M0.97325455,8.19412753 C0.981017163,8.22199744 1.00238379,8.24341019 1.02930368,8.25029765 C1.05622357,8.25718512 1.08460563,8.24850058 1.10375576,8.22751632 C1.12290589,8.20653205 1.12991379,8.17643707 1.12213895,8.14857091 C1.11437634,8.120701 1.09300971,8.09928825 1.06608982,8.09240079 C1.03916993,8.08551332 1.01078787,8.09419785 0.991637737,8.11518212 C0.972487609,8.13616639 0.965479708,8.16626137 0.97325455,8.19412753 L0.97325455,8.19412753 Z" id="路径" fill="#AEAFAF"></path>
                    <path d="M1.69513479,6.06613428 C1.70898815,6.09127312 1.73459022,6.10675929 1.76229695,6.10675929 C1.79000368,6.10675929 1.81560575,6.09127313 1.82945912,6.06613429 C1.84331248,6.04099545 1.84331249,6.01002312 1.82945912,5.98488428 C1.80804368,5.946023 1.76061351,5.93270814 1.72352087,5.9551447 C1.68642823,5.97758127 1.67371935,6.027273 1.69513479,6.06613428 L1.69513479,6.06613428 Z" id="路径" fill="#AEAFAF"></path>
                    <path d="M1.80259266,14.0279344 C1.83007961,14.0316633 1.85737657,14.0197402 1.87419473,13.9966591 C1.89101289,13.973578 1.89479532,13.942848 1.88411632,13.9160519 C1.87343733,13.8892558 1.8499205,13.8704676 1.82242982,13.8667689 C1.79494288,13.8630399 1.76764592,13.8749631 1.75082776,13.8980442 C1.73400959,13.9211253 1.73022717,13.9518553 1.74090617,13.9786514 C1.75158516,14.0054475 1.77510199,14.0242357 1.80259266,14.0279344 L1.80259266,14.0279344 Z" id="路径" fill="#AEAFAF"></path>
                    <path d="M2.27151813,7.96079328 C2.28968297,7.98271216 2.31762936,7.99281314 2.34483017,7.98729128 C2.37203098,7.98176942 2.39435376,7.96146362 2.40338973,7.93402287 C2.4124257,7.90658213 2.40680209,7.87617535 2.38863725,7.85425647 C2.36055685,7.82037282 2.31157517,7.81675377 2.27923362,7.84617309 C2.24689207,7.87559242 2.24343773,7.92690963 2.27151813,7.96079328 L2.27151813,7.96079328 Z" id="路径" fill="#686767"></path>
                    <path d="M2.44070125,11.4671305 C2.44423301,11.4959284 2.46216409,11.5205633 2.48773722,11.5317515 C2.51331035,11.5429397 2.54263845,11.5389806 2.56466933,11.5213663 C2.5867002,11.5037519 2.59808519,11.4751596 2.5945339,11.4463643 C2.59100213,11.4175663 2.57307105,11.3929315 2.54749792,11.3817433 C2.52192479,11.3705551 2.49259669,11.3745141 2.47056582,11.3921285 C2.44853494,11.4097428 2.43714995,11.4383351 2.44070125,11.4671305 L2.44070125,11.4671305 Z" id="路径" fill="#686767"></path>
                    <path d="M2.46298631,14.5216229 C2.49047393,14.5253533 2.51777213,14.5134306 2.53459112,14.4903491 C2.55141011,14.4672675 2.55519266,14.4365365 2.54451296,14.4097398 C2.53383326,14.3829431 2.5103151,14.364155 2.48282345,14.3604575 C2.45533583,14.3567271 2.42803763,14.3686498 2.41121864,14.3917313 C2.39439964,14.4148129 2.3906171,14.4455439 2.4012968,14.4723406 C2.4119765,14.4991373 2.43549466,14.5179254 2.46298631,14.5216229 L2.46298631,14.5216229 Z" id="路径" fill="#AEAFAF"></path>
                    <path d="M2.11243732,13.3976994 C2.12019994,13.4255693 2.14156657,13.446982 2.16848645,13.4538695 C2.19540634,13.460757 2.22378841,13.4520724 2.24293854,13.4310882 C2.26208866,13.4101039 2.26909656,13.3800089 2.26132172,13.3521427 C2.25355911,13.3242728 2.23219248,13.3028601 2.20527259,13.2959726 C2.1783527,13.2890852 2.14997064,13.2977697 2.13082051,13.318754 C2.11167038,13.3397382 2.10466248,13.3698332 2.11243732,13.3976994 L2.11243732,13.3976994 Z" id="路径" fill="#AEAFAF"></path>
                    <path d="M2.20815374,10.1975967 C2.21591268,10.2254712 2.2372797,10.2468892 2.26420228,10.2537791 C2.29112486,10.2606689 2.31951054,10.2519833 2.33866171,10.2309955 C2.35781289,10.2100077 2.36481841,10.179908 2.35703814,10.1520401 C2.3492792,10.1241656 2.32791218,10.1027476 2.3009896,10.0958577 C2.27406702,10.0889679 2.24568134,10.0976535 2.22653017,10.1186413 C2.20737899,10.1396291 2.20037347,10.1697287 2.20815374,10.1975967 L2.20815374,10.1975967 Z" id="路径" fill="#AEAFAF"></path>
                    <path d="M1.65104655,1.20344844 C1.67764179,1.2115878 1.70636147,1.20424397 1.72638717,1.18418329 C1.74641288,1.16412262 1.75470222,1.13439279 1.7481327,1.10619275 C1.74156317,1.0779927 1.72113284,1.05560671 1.69453761,1.04746734 C1.66794237,1.03932798 1.63922269,1.04667181 1.61919698,1.06673248 C1.59917128,1.08679316 1.59088193,1.11652299 1.59745146,1.14472304 C1.60402098,1.17292308 1.62445132,1.19530908 1.65104655,1.20344844 L1.65104655,1.20344844 Z" id="路径" fill="#686767"></path>
                    <path d="M0.933985558,5.64509125 C0.96058079,5.65323062 0.989300472,5.64588678 1.00932618,5.62582611 C1.02935188,5.60576543 1.03764123,5.5760356 1.0310717,5.54783556 C1.02450218,5.51963552 1.00407184,5.49724952 0.97747661,5.48911016 C0.950881377,5.48097079 0.922161694,5.48831462 0.902135987,5.5083753 C0.88211028,5.52843597 0.873820932,5.55816581 0.88039046,5.58636585 C0.886959988,5.61456589 0.907390324,5.63695189 0.933985558,5.64509125 L0.933985558,5.64509125 Z" id="路径" fill="#686767"></path>
                    <path d="M1.19875334,5.23688756 C1.21967453,5.2559218 1.24869943,5.26181563 1.2748933,5.25234863 C1.30108717,5.24288163 1.32046995,5.21949227 1.32573944,5.19099219 C1.33100893,5.1624921 1.32136445,5.13321176 1.30043943,5.11418216 C1.27951824,5.09514792 1.25049334,5.08925409 1.22429947,5.09872109 C1.1981056,5.10818809 1.17872282,5.13157745 1.17345333,5.16007753 C1.16818384,5.18857762 1.17782832,5.21785795 1.19875334,5.23688756 L1.19875334,5.23688756 Z" id="路径" fill="#AEAFAF"></path>
                    <path d="M0.949927243,2.99405478 C0.977406432,2.99776731 1.00468872,2.98583885 1.02149714,2.96276272 C1.03830555,2.9396866 1.04208649,2.90896863 1.03141572,2.88217997 C1.02074494,2.85539132 0.997243593,2.83660181 0.969764404,2.83288928 C0.942285215,2.82917675 0.915002926,2.84110521 0.898194511,2.86418134 C0.881386096,2.88725746 0.877605155,2.91797543 0.88827593,2.94476409 C0.898946706,2.97155275 0.922448054,2.99034225 0.949927243,2.99405478 Z" id="路径" fill="#AEAFAF"></path>
                    <path d="M1.14599284,0.807203313 C1.15375545,0.835073217 1.17512208,0.85648597 1.20204197,0.863373433 C1.22896186,0.870260896 1.25734392,0.861576366 1.27649405,0.840592097 C1.29564418,0.819607828 1.30265208,0.78951285 1.29487724,0.761646688 C1.28711462,0.733776783 1.26574799,0.71236403 1.23882811,0.705476567 C1.21190822,0.698589104 1.18352615,0.707273634 1.16437602,0.728257903 C1.1452259,0.749242172 1.13821799,0.77933715 1.14599284,0.807203313 L1.14599284,0.807203313 Z" id="路径" fill="#AEAFAF"></path>
                    <path d="M1.55141137,1.74420272 C1.55917398,1.77207262 1.58054061,1.79348538 1.6074605,1.80037284 C1.63438038,1.8072603 1.66276245,1.79857577 1.68191258,1.7775915 C1.70106271,1.75660723 1.70807061,1.72651226 1.70029577,1.69864609 C1.69253315,1.67077619 1.67116652,1.64936344 1.64424663,1.64247597 C1.61732675,1.63558851 1.58894468,1.64427304 1.56979455,1.66525731 C1.55064442,1.68624158 1.54363652,1.71633656 1.55141137,1.74420272 L1.55141137,1.74420272 Z" id="路径" fill="#AEAFAF"></path>
                    <path d="M1.66280003,3.13491703 C1.69027922,3.13862956 1.71756151,3.12670109 1.73436992,3.10362496 C1.75117833,3.08054883 1.75495926,3.04983086 1.74428848,3.02304221 C1.7336177,2.99625356 1.71011635,2.97746406 1.68263716,2.97375153 C1.65515798,2.970039 1.62787569,2.98196747 1.61106728,3.0050436 C1.59425887,3.02811973 1.59047794,3.0588377 1.60114871,3.08562635 C1.61181949,3.11241501 1.63532084,3.13120451 1.66280003,3.13491703 L1.66280003,3.13491703 Z" id="路径" fill="#AEAFAF"></path>
                    <path d="M2.19931677,4.84240589 C2.20257141,4.83914557 2.20391862,4.83431379 2.20285092,4.82973064 C2.20178322,4.82514749 2.19846282,4.82150925 2.19414049,4.82018642 C2.18745873,4.81814149 2.1804598,4.82215866 2.17850794,4.82915901 C2.17655609,4.83615935 2.18039043,4.84349199 2.18707219,4.84553691 C2.19139452,4.84685975 2.19606214,4.84566621 2.19931677,4.84240589 Z" id="路径" fill="#686767"></path>
                    <path d="M1.97531917,2.50666759 C1.98308178,2.5345375 2.00444841,2.55595025 2.0313683,2.56283771 C2.05828819,2.56972518 2.08667025,2.56104065 2.10582038,2.54005638 C2.12497051,2.51907211 2.13197841,2.48897713 2.12420357,2.46111097 C2.11644096,2.43324106 2.09507432,2.41182831 2.06815444,2.40494085 C2.04123455,2.39805338 2.01285248,2.40673792 1.99370236,2.42772218 C1.97455223,2.44870645 1.96754433,2.47880143 1.97531917,2.50666759 L1.97531917,2.50666759 Z" id="路径" fill="#AEAFAF"></path>
                    <path d="M0.656308081,28.0625 C0.47734152,28.0625 0.310306063,27.9875 0.188012246,27.85625 C0.062735653,27.725 -0.00288541946,27.546875 9.73565639e-05,27.3625 L0.283461079,0.675 C0.292409407,0.3 0.584721457,0 0.939671803,0 L1.69133136,0 C2.04329893,0 2.33859376,0.3 2.34754208,0.66875 L3.22746101,27.353125 L3.22746101,27.35625 C3.23044379,27.54375 3.16482271,27.71875 3.03954612,27.853125 C2.92023508,27.9875 2.75319962,28.0625 2.57423306,28.0625 L0.656308081,28.0625 Z M0.715963601,27.3125 L2.51159477,27.3125 L1.63465862,0.75 L0.999327323,0.75 L0.715963601,27.3125 Z" id="形状" fill="#3D6072"></path>
                </g>
                <g id="编组-4备份-3" transform="translate(3.613779, 14.031250) scale(-1, 1) translate(-3.613779, -14.031250) translate(2.000000, 0.000000)">
                    <path d="M1.01137845,4.41960075 C1.01914107,4.44747065 1.0405077,4.46888341 1.06742759,4.47577087 C1.09434747,4.48265833 1.12272954,4.4739738 1.14187967,4.45298953 C1.1610298,4.43200527 1.1680377,4.40191029 1.16026285,4.37404413 C1.15250024,4.34617422 1.13113361,4.32476147 1.10421372,4.317874 C1.07729384,4.31098654 1.04891177,4.31967107 1.02976164,4.34065534 C1.01061151,4.36163961 1.00360361,4.39173459 1.01137845,4.41960075 L1.01137845,4.41960075 Z" id="路径" fill="#686767"></path>
                    <path d="M1.66255163,5.10362109 C1.69003082,5.10733363 1.71731311,5.09540516 1.73412152,5.07232904 C1.75092994,5.04925291 1.75471088,5.01853494 1.7440401,4.99174628 C1.73336933,4.96495763 1.70986798,4.94616812 1.68238879,4.94245559 C1.6549096,4.93874306 1.62762731,4.95067152 1.61081889,4.97374765 C1.59401048,4.99682377 1.59022954,5.02754175 1.60090031,5.0543304 C1.61157109,5.08111906 1.63507244,5.09990857 1.66255163,5.10362109 L1.66255163,5.10362109 Z" id="路径" fill="#686767"></path>
                    <path d="M2.06381915,3.92119441 C2.10629829,3.92693348 2.14517514,3.8955078 2.15065302,3.85100317 C2.1561309,3.80649855 2.12613545,3.76576798 2.08365631,3.76002891 C2.05617712,3.75631638 2.02889483,3.76824484 2.01208642,3.79132096 C1.99527801,3.81439709 1.99149706,3.84511506 2.00216784,3.87190371 C2.01283861,3.89869237 2.03633996,3.91748188 2.06381915,3.92119441 L2.06381915,3.92119441 Z" id="路径" fill="#686767"></path>
                    <path d="M1.82334157,4.08566691 C1.82687333,4.11446487 1.84480441,4.13909974 1.87037754,4.15028794 C1.89595067,4.16147614 1.92527877,4.15751709 1.94730965,4.13990273 C1.96934053,4.12228837 1.98072551,4.09369608 1.97717422,4.06490075 C1.97364245,4.03610278 1.95571137,4.01146792 1.93013824,4.00027972 C1.90456511,3.98909152 1.87523701,3.99305057 1.85320614,4.01066493 C1.83117526,4.02827928 1.81979028,4.05687158 1.82334157,4.08566691 L1.82334157,4.08566691 Z" id="路径" fill="#AEAFAF"></path>
                    <path d="M0.74123535,4.85392078 C0.767830582,4.86206015 0.796550264,4.85471632 0.816575969,4.83465564 C0.836601675,4.81459496 0.844891023,4.78486513 0.838321496,4.75666509 C0.831751969,4.72846505 0.811321634,4.70607905 0.784726402,4.69793969 C0.75813117,4.68980032 0.729411488,4.69714415 0.709385783,4.71720483 C0.689360078,4.73726551 0.68107073,4.76699534 0.687640257,4.79519538 C0.694209784,4.82339542 0.714640118,4.84578142 0.74123535,4.85392078 Z" id="路径" fill="#AEAFAF"></path>
                    <path d="M0.861396452,3.85400278 C0.887997444,3.86216142 0.916732214,3.85482605 0.936769346,3.83476168 C0.956806477,3.81469731 0.965099401,3.78495466 0.958522144,3.75674507 C0.951944886,3.72853547 0.931497495,3.70614809 0.904887504,3.69802172 C0.878286512,3.68986308 0.849551742,3.69719845 0.829514611,3.71726282 C0.80947748,3.73732719 0.801184556,3.76706984 0.807761813,3.79527943 C0.81433907,3.82348903 0.834786461,3.84587641 0.861396452,3.85400278 L0.861396452,3.85400278 Z" id="路径" fill="#AEAFAF"></path>
                    <path d="M1.95770647,4.835453 C1.96123824,4.86425097 1.97916931,4.88888583 2.00474245,4.90007403 C2.03031558,4.91126223 2.05964368,4.90730318 2.08167455,4.88968882 C2.10370543,4.87207447 2.11509041,4.84348217 2.11153912,4.81468684 C2.10800736,4.78588888 2.09007628,4.76125401 2.06450315,4.75006581 C2.03893001,4.73887761 2.00960192,4.74283666 1.98757104,4.76045102 C1.96554016,4.77806538 1.95415518,4.80665767 1.95770647,4.835453 L1.95770647,4.835453 Z" id="路径" fill="#AEAFAF"></path>
                    <path d="M1.61747806,5.86315412 C1.62524068,5.89102403 1.64660731,5.91243678 1.6735272,5.91932425 C1.70044708,5.92621171 1.72882915,5.91752718 1.74797928,5.89654291 C1.76712941,5.87555864 1.77413731,5.84546366 1.76636246,5.8175975 C1.75859985,5.7897276 1.73723322,5.76831484 1.71031333,5.76142738 C1.68339345,5.75453992 1.65501138,5.76322445 1.63586125,5.78420872 C1.61671112,5.80519298 1.60970322,5.83528796 1.61747806,5.86315412 Z" id="路径" fill="#686767"></path>
                    <path d="M0.722124346,6.28471384 C0.72988696,6.31258375 0.75125359,6.3339965 0.778173478,6.34088396 C0.805093365,6.34777143 0.833475431,6.3390869 0.852625559,6.31810263 C0.871775688,6.29711836 0.878783589,6.26702338 0.871008746,6.23915722 C0.863246133,6.21128731 0.841879503,6.18987456 0.814959615,6.1829871 C0.788039728,6.17609963 0.759657662,6.18478417 0.740507534,6.20576843 C0.721357405,6.2267527 0.714349504,6.25684768 0.722124346,6.28471384 L0.722124346,6.28471384 Z" id="路径" fill="#686767"></path>
                    <path d="M0.600249908,5.288223 C0.608012521,5.3160929 0.629379152,5.33750566 0.656299039,5.34439312 C0.683218927,5.35128058 0.711600992,5.34259605 0.730751121,5.32161178 C0.749901249,5.30062752 0.75690915,5.27053254 0.749134308,5.24266637 C0.741371695,5.21479647 0.720005064,5.19338372 0.693085177,5.18649625 C0.666165289,5.17960879 0.637783224,5.18829332 0.618633095,5.20927759 C0.599482967,5.23026186 0.592475065,5.26035684 0.600249908,5.288223 L0.600249908,5.288223 Z" id="路径" fill="#686767"></path>
                    <path d="M2.26975821,6.54508769 C2.31223735,6.55082676 2.3511142,6.51940108 2.35659208,6.47489645 C2.36206996,6.43039183 2.33207451,6.38966126 2.28959537,6.38392219 C2.26211618,6.38020965 2.23483389,6.39213812 2.21802547,6.41521424 C2.20121706,6.43829037 2.19743612,6.46900834 2.20810689,6.495797 C2.21877767,6.52258565 2.24227902,6.54137516 2.26975821,6.54508769 L2.26975821,6.54508769 Z" id="路径" fill="#686767"></path>
                    <path d="M0.448993246,5.86991256 C0.475588478,5.87805193 0.50430816,5.8707081 0.524333865,5.85064742 C0.544359571,5.83058674 0.552648919,5.80085691 0.546079392,5.77265687 C0.539509865,5.74445683 0.51907953,5.72207083 0.492484298,5.71393147 C0.465889066,5.7057921 0.437169384,5.71313593 0.417143679,5.73319661 C0.397117974,5.75325729 0.388828626,5.78298712 0.395398153,5.81118716 C0.40196768,5.8393872 0.422398014,5.8617732 0.448993246,5.86991256 L0.448993246,5.86991256 Z" id="路径" fill="#AEAFAF"></path>
                    <path d="M1.34556513,6.29490544 C1.37216036,6.3030448 1.40088004,6.29570097 1.42090575,6.27564029 C1.44093145,6.25557962 1.4492208,6.22584979 1.44265128,6.19764975 C1.43608175,6.1694497 1.41565141,6.14706371 1.38905618,6.13892434 C1.36246095,6.13078498 1.33374127,6.13812881 1.31371556,6.15818949 C1.29368986,6.17825016 1.28540051,6.20797999 1.29197004,6.23618004 C1.29853956,6.26438008 1.3189699,6.28676607 1.34556513,6.29490544 Z" id="路径" fill="#AEAFAF"></path>
                    <path d="M1.46861797,5.29584119 C1.49521321,5.30398055 1.52393289,5.29663672 1.54395859,5.27657604 C1.5639843,5.25651537 1.57227364,5.22678554 1.56570412,5.1985855 C1.55913459,5.17038545 1.53870426,5.14799946 1.51210903,5.13986009 C1.48551379,5.13172073 1.45679411,5.13906456 1.4367684,5.15912523 C1.4167427,5.17918591 1.40845335,5.20891574 1.41502288,5.23711579 C1.4215924,5.26531583 1.44202274,5.28770183 1.46861797,5.29584119 L1.46861797,5.29584119 Z" id="路径" fill="#AEAFAF"></path>
                    <path d="M2.64880246,27.6875 C2.81583792,27.6875 2.95006284,27.54375 2.94708006,27.36875 L2.06716114,0.68125 C2.06417836,0.5125 1.92995344,0.375 1.76888354,0.375 L1.01722398,0.375 C0.856154074,0.375 0.721929154,0.509375 0.718946377,0.68125 L0.435582656,27.36875 C0.429617104,27.54375 0.563842024,27.6875 0.730877482,27.6875 L2.64880246,27.6875 Z" id="路径" fill="#54BDDD"></path>
                    <path d="M1.14250057,7.30625 C1.09477616,7.49375 0.945637355,7.64375 0.841240194,7.809375 C0.796498554,7.79375 0.75473969,7.778125 0.709998049,7.7625 C0.671221961,7.553125 0.602618113,7.34375 0.605600889,7.134375 C0.605600889,7.003125 0.692101393,6.846875 0.778601898,6.75 C0.81439521,6.7125 0.996344547,6.76875 1.03213786,6.8375 C1.10372448,6.978125 1.17829388,7.175 1.14250057,7.30625 Z M0.817377986,17.49375 C1.01722398,17.621875 0.939671803,17.815625 0.868085179,17.996875 C0.862119626,18.009375 0.841240194,18.015625 0.805446882,18.040625 C0.638411425,17.953125 0.4922554,17.8375 0.614549217,17.571875 C0.638411425,17.515625 0.76965357,17.465625 0.817377986,17.49375 Z M1.62571029,23.515625 C1.44674373,23.11875 1.44674373,23.11875 1.93890177,22.978125 C1.83748739,23.2125 1.8852118,23.49375 1.62571029,23.515625 Z M1.13355224,14.903125 C1.28269105,15.01875 1.40498486,15.115625 1.61377918,15.278125 C1.20513887,15.21875 1.20513887,15.21875 1.13355224,14.903125 Z M1.26181161,21.61875 C1.19619054,21.646875 1.12758669,21.675 1.06196562,21.7 C1.04705174,21.603125 1.03213786,21.50625 1.01722398,21.40625 C1.05600007,21.390625 1.09179338,21.375 1.13056947,21.359375 C1.17531111,21.446875 1.22005275,21.534375 1.26181161,21.61875 L1.26181161,21.61875 Z M1.46464038,18.065625 C1.48551981,18.134375 1.47060593,18.21875 1.47060593,18.29375 C1.44674373,18.296875 1.42288152,18.3 1.40200209,18.30625 C1.36024322,18.196875 1.32146713,18.0875 1.27970827,17.978125 C1.3005877,17.9625 1.31848436,17.946875 1.33936379,17.93125 C1.38410543,17.971875 1.44674373,18.009375 1.46464038,18.065625 L1.46464038,18.065625 Z M1.93890177,25.246875 C1.9478501,25.2875 1.95381565,25.328125 1.96276398,25.365625 C1.87029792,25.4 1.77783186,25.434375 1.68536581,25.465625 C1.67045193,25.415625 1.65852082,25.365625 1.64360694,25.31875 C1.74502133,25.29375 1.84345294,25.26875 1.93890177,25.246875 Z M2.04926448,24.9375 C1.93591899,24.95625 1.84643571,24.975 1.72115912,24.996875 C1.82555628,24.771875 1.90609123,24.684375 2.04926448,24.9375 Z M1.76888354,16.740625 C1.7987113,16.675 1.85240127,16.625 1.89416013,16.56875 C1.91205679,16.584375 1.92697067,16.2875 1.94486732,16.303125 C1.91503956,16.421875 1.88222903,16.85 1.85240127,16.96875 C1.8106424,16.959375 1.76888354,16.946875 1.73010745,16.9375 C1.73905578,16.871875 1.74203855,16.796875 1.76888354,16.740625 Z" id="形状" fill="#09A7AF"></path>
                    <path d="M1.93612345,0.784425 C1.93612345,0.742758333 1.63916966,0.642741667 1.04526207,0.484375 C0.854364409,0.540625 0.73982581,0.6125 0.73982581,0.690625 L0.778005343,14.678125 L2.49608433,14.6625 L1.93612345,0.784425 Z" id="路径" fill="#F2F0F0"></path>
                    <path d="M0.893747343,7.32799287 C0.911912174,7.34991176 0.939858561,7.36001274 0.96705937,7.35449089 C0.994260178,7.34896903 1.01658296,7.32866323 1.02561893,7.30122249 C1.03465491,7.27378175 1.0290313,7.24337497 1.01086646,7.22145609 C0.99270163,7.19953721 0.964755242,7.18943622 0.937554434,7.19495808 C0.910353625,7.20047994 0.888030846,7.22078574 0.878994872,7.24822648 C0.869958897,7.27566721 0.875582508,7.306074 0.893747343,7.32799287 Z" id="路径" fill="#686767"></path>
                    <path d="M1.06556789,10.8326161 C1.06909965,10.861414 1.08703073,10.8860489 1.11260386,10.8972371 C1.13817699,10.9084253 1.16750509,10.9044662 1.18953597,10.8868519 C1.21156684,10.8692375 1.22295183,10.8406452 1.21940054,10.8118499 C1.21586877,10.7830519 1.19793769,10.7584171 1.17236456,10.7472289 C1.14679143,10.7360407 1.11746333,10.7399997 1.09543246,10.7576141 C1.07340158,10.7752284 1.06201659,10.8038207 1.06556789,10.8326161 L1.06556789,10.8326161 Z" id="路径" fill="#686767"></path>
                    <path d="M1.78853911,12.0932406 C1.81513434,12.1013799 1.84385402,12.0940361 1.86387973,12.0739754 C1.88390543,12.0539147 1.89219478,12.0241849 1.88562525,11.9959849 C1.87905572,11.9677848 1.85862539,11.9453988 1.83203016,11.9372595 C1.80543493,11.9291201 1.77671524,11.9364639 1.75668954,11.9565246 C1.73666383,11.9765853 1.72837449,12.0063151 1.73494401,12.0345152 C1.74151354,12.0627152 1.76194387,12.0851012 1.78853911,12.0932406 Z" id="路径" fill="#686767"></path>
                    <path d="M1.78165945,10.6949205 C1.78520014,10.7237103 1.80313204,10.7483342 1.82870039,10.7595166 C1.85426873,10.770699 1.88358908,10.766741 1.90561673,10.7491335 C1.92764439,10.7315261 1.93903282,10.7029441 1.93549213,10.6741543 C1.93195144,10.6453645 1.91401954,10.6207406 1.88845119,10.6095582 C1.86288285,10.5983758 1.8335625,10.6023338 1.81153485,10.6199413 C1.7895072,10.6375487 1.77811876,10.6661306 1.78165945,10.6949205 L1.78165945,10.6949205 Z" id="路径" fill="#686767"></path>
                    <path d="M1.92462805,9.47320356 C1.92815822,9.50200298 1.94608914,9.52663981 1.97166313,9.53782906 C1.99723711,9.54901831 2.0265666,9.54505907 2.04859805,9.52744348 C2.07062951,9.5098279 2.08201388,9.48123375 2.0784607,9.45243744 C2.07493054,9.42363802 2.05699961,9.39900119 2.03142563,9.38781194 C2.00585164,9.37662269 1.97652215,9.38058193 1.9544907,9.39819752 C1.93245924,9.4158131 1.92107487,9.44440725 1.92462805,9.47320356 L1.92462805,9.47320356 Z" id="路径" fill="#686767"></path>
                    <path d="M1.84970445,6.97185912 C1.87723744,6.97517873 1.90436859,6.9628526 1.92087269,6.93952621 C1.9373768,6.91619981 1.94074498,6.88541912 1.92970784,6.85878477 C1.9186707,6.83215042 1.89490605,6.81371124 1.86737033,6.81041659 C1.83983733,6.80709699 1.81270618,6.81942312 1.79620208,6.84274951 C1.77969798,6.86607591 1.7763298,6.8968566 1.78736693,6.92349095 C1.79840407,6.9501253 1.82216872,6.96856448 1.84970445,6.97185912 L1.84970445,6.97185912 Z" id="路径" fill="#686767"></path>
                    <path d="M1.73177357,5.82391412 C1.7593,5.8272203 1.78641902,5.81488995 1.80291515,5.79156778 C1.81941129,5.76824562 1.82277839,5.73747484 1.81174809,5.7108465 C1.8007178,5.68421815 1.77696588,5.66577773 1.74943945,5.66247156 C1.72191302,5.65916538 1.694794,5.67149574 1.67829786,5.69481791 C1.66180172,5.71814007 1.65843462,5.74891085 1.66946492,5.77553919 C1.68049521,5.80216753 1.70424714,5.82060795 1.73177357,5.82391412 L1.73177357,5.82391412 Z" id="路径" fill="#686767"></path>
                    <path d="M1.08673558,13.8866414 C1.11422252,13.8903704 1.14151948,13.8784473 1.15833764,13.8553662 C1.17515581,13.832285 1.17893823,13.8015551 1.16825923,13.774759 C1.15758024,13.7479629 1.13406341,13.7291747 1.10657274,13.725476 C1.07908579,13.721747 1.05178883,13.7336701 1.03497067,13.7567512 C1.01815251,13.7798324 1.01437009,13.8105624 1.02504908,13.8373584 C1.03572807,13.8641545 1.0592449,13.8829427 1.08673558,13.8866414 L1.08673558,13.8866414 Z" id="路径" fill="#AEAFAF"></path>
                    <path d="M1.285967,11.697369 C1.29372594,11.7252435 1.31509296,11.7466615 1.34201554,11.7535514 C1.36893812,11.7604412 1.3973238,11.7517556 1.41647497,11.7307678 C1.43562615,11.70978 1.44263167,11.6796804 1.4348514,11.6518124 C1.42709245,11.6239379 1.40572544,11.6025199 1.37880286,11.59563 C1.35188028,11.5887402 1.3234946,11.5974258 1.30434342,11.6184136 C1.28519225,11.6394014 1.27818673,11.6695011 1.285967,11.697369 L1.285967,11.697369 Z" id="路径" fill="#AEAFAF"></path>
                    <path d="M0.832919532,9.56300647 C0.840687069,9.59087024 0.862053176,9.6122759 0.888969446,9.61916015 C0.915885716,9.6260444 0.944262928,9.61736136 0.963411661,9.59638184 C0.982560394,9.57540232 0.989571499,9.54531361 0.981803962,9.51744984 C0.969796389,9.47437619 0.926733413,9.44965629 0.885620113,9.46223641 C0.844506813,9.47481652 0.820911959,9.51993281 0.832919532,9.56300647 Z" id="路径" fill="#AEAFAF"></path>
                    <path d="M0.97325455,8.19412753 C0.981017163,8.22199744 1.00238379,8.24341019 1.02930368,8.25029765 C1.05622357,8.25718512 1.08460563,8.24850058 1.10375576,8.22751632 C1.12290589,8.20653205 1.12991379,8.17643707 1.12213895,8.14857091 C1.11437634,8.120701 1.09300971,8.09928825 1.06608982,8.09240079 C1.03916993,8.08551332 1.01078787,8.09419785 0.991637737,8.11518212 C0.972487609,8.13616639 0.965479708,8.16626137 0.97325455,8.19412753 L0.97325455,8.19412753 Z" id="路径" fill="#AEAFAF"></path>
                    <path d="M1.69513479,6.06613428 C1.70898815,6.09127312 1.73459022,6.10675929 1.76229695,6.10675929 C1.79000368,6.10675929 1.81560575,6.09127313 1.82945912,6.06613429 C1.84331248,6.04099545 1.84331249,6.01002312 1.82945912,5.98488428 C1.80804368,5.946023 1.76061351,5.93270814 1.72352087,5.9551447 C1.68642823,5.97758127 1.67371935,6.027273 1.69513479,6.06613428 L1.69513479,6.06613428 Z" id="路径" fill="#AEAFAF"></path>
                    <path d="M1.80259266,14.0279344 C1.83007961,14.0316633 1.85737657,14.0197402 1.87419473,13.9966591 C1.89101289,13.973578 1.89479532,13.942848 1.88411632,13.9160519 C1.87343733,13.8892558 1.8499205,13.8704676 1.82242982,13.8667689 C1.79494288,13.8630399 1.76764592,13.8749631 1.75082776,13.8980442 C1.73400959,13.9211253 1.73022717,13.9518553 1.74090617,13.9786514 C1.75158516,14.0054475 1.77510199,14.0242357 1.80259266,14.0279344 L1.80259266,14.0279344 Z" id="路径" fill="#AEAFAF"></path>
                    <path d="M2.27151813,7.96079328 C2.28968297,7.98271216 2.31762936,7.99281314 2.34483017,7.98729128 C2.37203098,7.98176942 2.39435376,7.96146362 2.40338973,7.93402287 C2.4124257,7.90658213 2.40680209,7.87617535 2.38863725,7.85425647 C2.36055685,7.82037282 2.31157517,7.81675377 2.27923362,7.84617309 C2.24689207,7.87559242 2.24343773,7.92690963 2.27151813,7.96079328 L2.27151813,7.96079328 Z" id="路径" fill="#686767"></path>
                    <path d="M2.44070125,11.4671305 C2.44423301,11.4959284 2.46216409,11.5205633 2.48773722,11.5317515 C2.51331035,11.5429397 2.54263845,11.5389806 2.56466933,11.5213663 C2.5867002,11.5037519 2.59808519,11.4751596 2.5945339,11.4463643 C2.59100213,11.4175663 2.57307105,11.3929315 2.54749792,11.3817433 C2.52192479,11.3705551 2.49259669,11.3745141 2.47056582,11.3921285 C2.44853494,11.4097428 2.43714995,11.4383351 2.44070125,11.4671305 L2.44070125,11.4671305 Z" id="路径" fill="#686767"></path>
                    <path d="M2.46298631,14.5216229 C2.49047393,14.5253533 2.51777213,14.5134306 2.53459112,14.4903491 C2.55141011,14.4672675 2.55519266,14.4365365 2.54451296,14.4097398 C2.53383326,14.3829431 2.5103151,14.364155 2.48282345,14.3604575 C2.45533583,14.3567271 2.42803763,14.3686498 2.41121864,14.3917313 C2.39439964,14.4148129 2.3906171,14.4455439 2.4012968,14.4723406 C2.4119765,14.4991373 2.43549466,14.5179254 2.46298631,14.5216229 L2.46298631,14.5216229 Z" id="路径" fill="#AEAFAF"></path>
                    <path d="M2.11243732,13.3976994 C2.12019994,13.4255693 2.14156657,13.446982 2.16848645,13.4538695 C2.19540634,13.460757 2.22378841,13.4520724 2.24293854,13.4310882 C2.26208866,13.4101039 2.26909656,13.3800089 2.26132172,13.3521427 C2.25355911,13.3242728 2.23219248,13.3028601 2.20527259,13.2959726 C2.1783527,13.2890852 2.14997064,13.2977697 2.13082051,13.318754 C2.11167038,13.3397382 2.10466248,13.3698332 2.11243732,13.3976994 L2.11243732,13.3976994 Z" id="路径" fill="#AEAFAF"></path>
                    <path d="M2.20815374,10.1975967 C2.21591268,10.2254712 2.2372797,10.2468892 2.26420228,10.2537791 C2.29112486,10.2606689 2.31951054,10.2519833 2.33866171,10.2309955 C2.35781289,10.2100077 2.36481841,10.179908 2.35703814,10.1520401 C2.3492792,10.1241656 2.32791218,10.1027476 2.3009896,10.0958577 C2.27406702,10.0889679 2.24568134,10.0976535 2.22653017,10.1186413 C2.20737899,10.1396291 2.20037347,10.1697287 2.20815374,10.1975967 L2.20815374,10.1975967 Z" id="路径" fill="#AEAFAF"></path>
                    <path d="M1.65104655,1.20344844 C1.67764179,1.2115878 1.70636147,1.20424397 1.72638717,1.18418329 C1.74641288,1.16412262 1.75470222,1.13439279 1.7481327,1.10619275 C1.74156317,1.0779927 1.72113284,1.05560671 1.69453761,1.04746734 C1.66794237,1.03932798 1.63922269,1.04667181 1.61919698,1.06673248 C1.59917128,1.08679316 1.59088193,1.11652299 1.59745146,1.14472304 C1.60402098,1.17292308 1.62445132,1.19530908 1.65104655,1.20344844 L1.65104655,1.20344844 Z" id="路径" fill="#686767"></path>
                    <path d="M0.933985558,5.64509125 C0.96058079,5.65323062 0.989300472,5.64588678 1.00932618,5.62582611 C1.02935188,5.60576543 1.03764123,5.5760356 1.0310717,5.54783556 C1.02450218,5.51963552 1.00407184,5.49724952 0.97747661,5.48911016 C0.950881377,5.48097079 0.922161694,5.48831462 0.902135987,5.5083753 C0.88211028,5.52843597 0.873820932,5.55816581 0.88039046,5.58636585 C0.886959988,5.61456589 0.907390324,5.63695189 0.933985558,5.64509125 L0.933985558,5.64509125 Z" id="路径" fill="#686767"></path>
                    <path d="M1.19875334,5.23688756 C1.21967453,5.2559218 1.24869943,5.26181563 1.2748933,5.25234863 C1.30108717,5.24288163 1.32046995,5.21949227 1.32573944,5.19099219 C1.33100893,5.1624921 1.32136445,5.13321176 1.30043943,5.11418216 C1.27951824,5.09514792 1.25049334,5.08925409 1.22429947,5.09872109 C1.1981056,5.10818809 1.17872282,5.13157745 1.17345333,5.16007753 C1.16818384,5.18857762 1.17782832,5.21785795 1.19875334,5.23688756 L1.19875334,5.23688756 Z" id="路径" fill="#AEAFAF"></path>
                    <path d="M0.949927243,2.99405478 C0.977406432,2.99776731 1.00468872,2.98583885 1.02149714,2.96276272 C1.03830555,2.9396866 1.04208649,2.90896863 1.03141572,2.88217997 C1.02074494,2.85539132 0.997243593,2.83660181 0.969764404,2.83288928 C0.942285215,2.82917675 0.915002926,2.84110521 0.898194511,2.86418134 C0.881386096,2.88725746 0.877605155,2.91797543 0.88827593,2.94476409 C0.898946706,2.97155275 0.922448054,2.99034225 0.949927243,2.99405478 Z" id="路径" fill="#AEAFAF"></path>
                    <path d="M1.14599284,0.807203313 C1.15375545,0.835073217 1.17512208,0.85648597 1.20204197,0.863373433 C1.22896186,0.870260896 1.25734392,0.861576366 1.27649405,0.840592097 C1.29564418,0.819607828 1.30265208,0.78951285 1.29487724,0.761646688 C1.28711462,0.733776783 1.26574799,0.71236403 1.23882811,0.705476567 C1.21190822,0.698589104 1.18352615,0.707273634 1.16437602,0.728257903 C1.1452259,0.749242172 1.13821799,0.77933715 1.14599284,0.807203313 L1.14599284,0.807203313 Z" id="路径" fill="#AEAFAF"></path>
                    <path d="M1.55141137,1.74420272 C1.55917398,1.77207262 1.58054061,1.79348538 1.6074605,1.80037284 C1.63438038,1.8072603 1.66276245,1.79857577 1.68191258,1.7775915 C1.70106271,1.75660723 1.70807061,1.72651226 1.70029577,1.69864609 C1.69253315,1.67077619 1.67116652,1.64936344 1.64424663,1.64247597 C1.61732675,1.63558851 1.58894468,1.64427304 1.56979455,1.66525731 C1.55064442,1.68624158 1.54363652,1.71633656 1.55141137,1.74420272 L1.55141137,1.74420272 Z" id="路径" fill="#AEAFAF"></path>
                    <path d="M1.66280003,3.13491703 C1.69027922,3.13862956 1.71756151,3.12670109 1.73436992,3.10362496 C1.75117833,3.08054883 1.75495926,3.04983086 1.74428848,3.02304221 C1.7336177,2.99625356 1.71011635,2.97746406 1.68263716,2.97375153 C1.65515798,2.970039 1.62787569,2.98196747 1.61106728,3.0050436 C1.59425887,3.02811973 1.59047794,3.0588377 1.60114871,3.08562635 C1.61181949,3.11241501 1.63532084,3.13120451 1.66280003,3.13491703 L1.66280003,3.13491703 Z" id="路径" fill="#AEAFAF"></path>
                    <path d="M2.19931677,4.84240589 C2.20257141,4.83914557 2.20391862,4.83431379 2.20285092,4.82973064 C2.20178322,4.82514749 2.19846282,4.82150925 2.19414049,4.82018642 C2.18745873,4.81814149 2.1804598,4.82215866 2.17850794,4.82915901 C2.17655609,4.83615935 2.18039043,4.84349199 2.18707219,4.84553691 C2.19139452,4.84685975 2.19606214,4.84566621 2.19931677,4.84240589 Z" id="路径" fill="#686767"></path>
                    <path d="M1.97531917,2.50666759 C1.98308178,2.5345375 2.00444841,2.55595025 2.0313683,2.56283771 C2.05828819,2.56972518 2.08667025,2.56104065 2.10582038,2.54005638 C2.12497051,2.51907211 2.13197841,2.48897713 2.12420357,2.46111097 C2.11644096,2.43324106 2.09507432,2.41182831 2.06815444,2.40494085 C2.04123455,2.39805338 2.01285248,2.40673792 1.99370236,2.42772218 C1.97455223,2.44870645 1.96754433,2.47880143 1.97531917,2.50666759 L1.97531917,2.50666759 Z" id="路径" fill="#AEAFAF"></path>
                    <path d="M0.656308081,28.0625 C0.47734152,28.0625 0.310306063,27.9875 0.188012246,27.85625 C0.062735653,27.725 -0.00288541946,27.546875 9.73565639e-05,27.3625 L0.283461079,0.675 C0.292409407,0.3 0.584721457,0 0.939671803,0 L1.69133136,0 C2.04329893,0 2.33859376,0.3 2.34754208,0.66875 L3.22746101,27.353125 L3.22746101,27.35625 C3.23044379,27.54375 3.16482271,27.71875 3.03954612,27.853125 C2.92023508,27.9875 2.75319962,28.0625 2.57423306,28.0625 L0.656308081,28.0625 Z M0.715963601,27.3125 L2.51159477,27.3125 L1.63465862,0.75 L0.999327323,0.75 L0.715963601,27.3125 Z" id="形状" fill="#3D6072"></path>
                </g>
            </g>
        </g>
    </g>
</svg>