<svg width="101.99999999999999" height="168" xmlns="http://www.w3.org/2000/svg" version="1.1">
 <title>手拿筷子</title>

 <g>
  <title>Layer 1</title>
  <g stroke="null" id="页面-1" fill="none" fill-rule="evenodd">
   <g stroke="null" id="画板" fill-rule="nonzero">
    <g stroke="null" id="手拿筷子">
     <g stroke="null" id="编组-4备份-2" transform="matrix(5.97841 -2.1963 2.2949 5.72157 -70.5627 -56.8118)">
      <path stroke="null" d="m7.56192,18.10247c0.00776,0.02787 0.02913,0.04928 0.05605,0.05617c0.02692,0.00689 0.0553,-0.0018 0.07445,-0.02278c0.01915,-0.02098 0.02616,-0.05108 0.01838,-0.07895c-0.00776,-0.02787 -0.02913,-0.04928 -0.05605,-0.05617c-0.02691,-0.00688 -0.0553,0.0018 -0.07445,0.02279c-0.01915,0.02098 -0.02616,0.05107 -0.01838,0.07894l0,0z" id="路径" fill="#686767"/>
      <path stroke="null" d="m8.21309,18.78649c0.02748,0.00371 0.05476,-0.00821 0.07157,-0.03129c0.01681,-0.02308 0.02059,-0.0538 0.00992,-0.08058c-0.01067,-0.02679 -0.03417,-0.04558 -0.06165,-0.04929c-0.02748,-0.00372 -0.05476,0.00821 -0.07157,0.03129c-0.01681,0.02307 -0.02059,0.05379 -0.00992,0.08058c0.01067,0.02679 0.03417,0.04558 0.06165,0.04929l0,0z" id="路径" fill="#686767"/>
      <path stroke="null" d="m8.61436,17.60406c0.04248,0.00574 0.08136,-0.02568 0.08683,-0.07019c0.00548,-0.0445 -0.02451,-0.08523 -0.06699,-0.09097c-0.02748,-0.00371 -0.05476,0.00821 -0.07157,0.03129c-0.01681,0.02308 -0.02059,0.0538 -0.00992,0.08058c0.01067,0.02679 0.03417,0.04558 0.06165,0.04929l0,0z" id="路径" fill="#686767"/>
      <path stroke="null" d="m8.37388,17.76854c0.00353,0.02879 0.02147,0.05343 0.04704,0.06462c0.02557,0.01119 0.0549,0.00723 0.07693,-0.01039c0.02203,-0.01761 0.03342,-0.0462 0.02987,-0.075c-0.00354,-0.0288 -0.02147,-0.05343 -0.04704,-0.06462c-0.02557,-0.01119 -0.0549,-0.00723 -0.07693,0.01038c-0.02203,0.01762 -0.03342,0.04621 -0.02987,0.07501l0,0z" id="路径" fill="#AEAFAF"/>
      <path stroke="null" d="m7.29178,18.53679c0.02659,0.00814 0.05531,0.0008 0.07534,-0.01926c0.02002,-0.02007 0.02831,-0.04979 0.02174,-0.07799c-0.00657,-0.0282 -0.027,-0.05059 -0.05359,-0.05873c-0.0266,-0.00814 -0.05532,-0.0008 -0.07534,0.01926c-0.02003,0.02007 -0.02832,0.0498 -0.02175,0.078c0.00657,0.0282 0.027,0.05058 0.0536,0.05872z" id="路径" fill="#AEAFAF"/>
      <path stroke="null" d="m7.41194,17.53687c0.0266,0.00816 0.05533,0.00083 0.07537,-0.01924c0.02004,-0.02006 0.02833,-0.04981 0.02175,-0.07801c-0.00657,-0.02821 -0.02702,-0.0506 -0.05363,-0.05873c-0.0266,-0.00816 -0.05534,-0.00082 -0.07537,0.01924c-0.02004,0.02007 -0.02833,0.04981 -0.02176,0.07802c0.00658,0.02821 0.02703,0.0506 0.05364,0.05872l0,0z" id="路径" fill="#AEAFAF"/>
      <path stroke="null" d="m8.50825,18.51832c0.00353,0.0288 0.02146,0.05344 0.04703,0.06462c0.02558,0.01119 0.0549,0.00723 0.07694,-0.01038c0.02203,-0.01762 0.03341,-0.04621 0.02986,-0.075c-0.00353,-0.0288 -0.02146,-0.05344 -0.04704,-0.06462c-0.02557,-0.01119 -0.0549,-0.00723 -0.07693,0.01038c-0.02203,0.01762 -0.03341,0.04621 -0.02986,0.075l0,0z" id="路径" fill="#AEAFAF"/>
      <path stroke="null" d="m8.16802,19.54602c0.00776,0.02787 0.02913,0.04929 0.05605,0.05617c0.02692,0.00689 0.0553,-0.00179 0.07445,-0.02278c0.01915,-0.02098 0.02616,-0.05108 0.01838,-0.07894c-0.00776,-0.02787 -0.02913,-0.04929 -0.05605,-0.05617c-0.02692,-0.00689 -0.0553,0.00179 -0.07445,0.02278c-0.01915,0.02098 -0.02616,0.05108 -0.01838,0.07894z" id="路径" fill="#686767"/>
      <path stroke="null" d="m7.27267,19.96758c0.00776,0.02787 0.02912,0.04929 0.05604,0.05617c0.02692,0.00689 0.05531,-0.00179 0.07446,-0.02278c0.01915,-0.02098 0.02615,-0.05108 0.01838,-0.07894c-0.00776,-0.02787 -0.02913,-0.04929 -0.05605,-0.05617c-0.02692,-0.00689 -0.0553,0.00179 -0.07445,0.02278c-0.01915,0.02098 -0.02616,0.05108 -0.01838,0.07894l0,0z" id="路径" fill="#686767"/>
      <path stroke="null" d="m7.15079,18.97109c0.00776,0.02787 0.02913,0.04929 0.05605,0.05617c0.02692,0.00689 0.0553,-0.00179 0.07445,-0.02278c0.01915,-0.02098 0.02616,-0.05108 0.01839,-0.07894c-0.00777,-0.02787 -0.02913,-0.04929 -0.05605,-0.05617c-0.02692,-0.00689 -0.05531,0.00179 -0.07446,0.02278c-0.01915,0.02098 -0.02615,0.05108 -0.01838,0.07894l0,0z" id="路径" fill="#686767"/>
      <path stroke="null" d="m8.8203,20.22796c0.04248,0.00574 0.08136,-0.02569 0.08683,-0.07019c0.00548,-0.04451 -0.02451,-0.08524 -0.06699,-0.09098c-0.02748,-0.00371 -0.05476,0.00822 -0.07157,0.03129c-0.01681,0.02308 -0.02059,0.0538 -0.00992,0.08059c0.01067,0.02679 0.03417,0.04558 0.06165,0.04929l0,0z" id="路径" fill="#686767"/>
      <path stroke="null" d="m6.99953,19.55278c0.0266,0.00814 0.05532,0.0008 0.07535,-0.01926c0.02002,-0.02006 0.02831,-0.04979 0.02174,-0.07799c-0.00657,-0.0282 -0.027,-0.05059 -0.05359,-0.05873c-0.0266,-0.00814 -0.05532,-0.00079 -0.07535,0.01927c-0.02002,0.02006 -0.02831,0.04979 -0.02174,0.07799c0.00657,0.0282 0.027,0.05058 0.05359,0.05872l0,0z" id="路径" fill="#AEAFAF"/>
      <path stroke="null" d="m7.89611,19.97778c0.02659,0.00813 0.05531,0.00079 0.07534,-0.01927c0.02002,-0.02006 0.02831,-0.04979 0.02174,-0.07799c-0.00657,-0.0282 -0.027,-0.05059 -0.05359,-0.05873c-0.0266,-0.00814 -0.05532,-0.00079 -0.07534,0.01927c-0.02003,0.02006 -0.02832,0.04979 -0.02175,0.07799c0.00657,0.0282 0.027,0.05059 0.0536,0.05873z" id="路径" fill="#AEAFAF"/>
      <path stroke="null" d="m8.01916,18.97871c0.02659,0.00814 0.05531,0.0008 0.07534,-0.01926c0.02003,-0.02006 0.02831,-0.04979 0.02175,-0.07799c-0.00657,-0.0282 -0.027,-0.05059 -0.0536,-0.05873c-0.02659,-0.00814 -0.05531,-0.0008 -0.07534,0.01927c-0.02003,0.02006 -0.02832,0.04979 -0.02175,0.07799c0.00657,0.0282 0.027,0.05058 0.0536,0.05872l0,0z" id="路径" fill="#AEAFAF"/>
      <path stroke="null" d="m9.19934,41.37037c0.16704,0 0.30126,-0.14375 0.29828,-0.31875l-0.87992,-26.6875c-0.00298,-0.16875 -0.13721,-0.30625 -0.29828,-0.30625l-0.75165,0c-0.16107,0 -0.2953,0.13438 -0.29828,0.30625l-0.28337,26.6875c-0.00596,0.175 0.12826,0.31875 0.2953,0.31875l1.91792,0z" id="路径" fill="#F1B8B8"/>
      <path stroke="null" d="m7.69304,20.98912c-0.04772,0.1875 -0.19686,0.3375 -0.30126,0.50313c-0.04474,-0.01563 -0.0865,-0.03125 -0.13124,-0.04688c-0.03878,-0.20938 -0.10738,-0.41875 -0.1044,-0.62812c0,-0.13126 0.0865,-0.28751 0.173,-0.38438c0.0358,-0.0375 0.21775,0.01875 0.25354,0.0875c0.07159,0.14063 0.14616,0.3375 0.11036,0.46875zm-0.32512,10.1875c0.19985,0.12812 0.12229,0.32188 0.05071,0.50312c-0.00597,0.0125 -0.02685,0.01876 -0.06264,0.04375c-0.16704,-0.08749 -0.31319,-0.20312 -0.1909,-0.46875c0.02386,-0.05624 0.1551,-0.10625 0.20283,-0.07812zm0.80833,6.02188c-0.17897,-0.39688 -0.17897,-0.39688 0.31319,-0.53751c-0.10141,0.23438 -0.05369,0.51563 -0.31319,0.53751zm-0.49216,-8.61251c0.14914,0.11563 0.27144,0.2125 0.48023,0.375c-0.40864,-0.05937 -0.40864,-0.05937 -0.48023,-0.375zm0.12826,6.71563c-0.06562,0.02813 -0.13422,0.05625 -0.19984,0.08125c-0.01492,-0.09688 -0.02983,-0.19375 -0.04474,-0.29375c0.03877,-0.01562 0.07456,-0.03125 0.11334,-0.04687c0.04474,0.08749 0.08948,0.175 0.13124,0.25937l0,0zm0.20283,-3.55312c0.02088,0.06874 0.00597,0.15312 0.00597,0.22812c-0.02387,0.00313 -0.04773,0.00625 -0.06861,0.0125c-0.04176,-0.10938 -0.08053,-0.21875 -0.12229,-0.32813c0.02088,-0.01562 0.03878,-0.03125 0.05966,-0.04687c0.04474,0.04063 0.10737,0.07812 0.12527,0.13438l0,0zm0.47426,7.18124c0.00895,0.04063 0.01492,0.08126 0.02387,0.11876c-0.09247,0.03437 -0.18494,0.06874 -0.2774,0.09999c-0.01492,-0.05 -0.02685,-0.09999 -0.04176,-0.14687c0.10141,-0.025 0.19984,-0.05 0.29529,-0.07188zm0.11037,-0.30937c-0.11335,0.01875 -0.20283,0.0375 -0.32811,0.05937c0.1044,-0.22499 0.18493,-0.3125 0.32811,-0.05937zm-0.28039,-8.19687c0.02983,-0.06563 0.08352,-0.11563 0.12528,-0.17188c0.0179,0.01563 0.03281,-0.28125 0.05071,-0.26562c-0.02983,0.11875 -0.06264,0.54687 -0.09247,0.66562c-0.04176,-0.00937 -0.08352,-0.02188 -0.12229,-0.03125c0.00895,-0.06563 0.01193,-0.14062 0.03877,-0.19687z" id="形状" fill="#09A7AF"/>
      <path stroke="null" d="m8.48666,14.46729c0,-0.04166 -0.29695,-0.14168 -0.89086,-0.30004c-0.19089,0.05625 -0.30543,0.12812 -0.30543,0.20625l0.03818,13.98749l1.71808,-0.01562l-0.55997,-13.87807l0,-0.00001z" id="路径" fill="#F2F0F0"/>
      <path stroke="null" d="m7.44429,21.01086c0.01816,0.02192 0.04611,0.03202 0.07331,0.0265c0.0272,-0.00552 0.04952,-0.02583 0.05856,-0.05327c0.00904,-0.02744 0.00341,-0.05785 -0.01475,-0.07976c-0.01817,-0.02192 -0.04611,-0.03202 -0.07331,-0.0265c-0.02721,0.00552 -0.04953,0.02583 -0.05856,0.05327c-0.00904,0.02744 -0.00342,0.05784 0.01475,0.07976z" id="路径" fill="#686767"/>
      <path stroke="null" d="m7.61611,24.51549c0.00353,0.02879 0.02146,0.05343 0.04704,0.06462c0.02557,0.01119 0.0549,0.00723 0.07693,-0.01039c0.02203,-0.01761 0.03341,-0.0462 0.02986,-0.075c-0.00353,-0.0288 -0.02146,-0.05343 -0.04703,-0.06462c-0.02558,-0.01119 -0.05491,-0.00723 -0.07694,0.01038c-0.02203,0.01762 -0.03341,0.04621 -0.02986,0.07501l0,0z" id="路径" fill="#686767"/>
      <path stroke="null" d="m8.33908,25.77611c0.0266,0.00814 0.05532,0.0008 0.07534,-0.01926c0.02003,-0.02007 0.02832,-0.0498 0.02175,-0.078c-0.00657,-0.0282 -0.027,-0.05058 -0.0536,-0.05872c-0.02659,-0.00814 -0.05531,-0.0008 -0.07534,0.01926c-0.02002,0.02007 -0.02831,0.0498 -0.02174,0.078c0.00656,0.0282 0.027,0.05058 0.05359,0.05872z" id="路径" fill="#686767"/>
      <path stroke="null" d="m8.3322,24.37779c0.00354,0.02879 0.02147,0.05341 0.04704,0.0646c0.02557,0.01118 0.05489,0.00722 0.07692,-0.01039c0.02203,-0.0176 0.03341,-0.04619 0.02987,-0.07498c-0.00354,-0.02879 -0.02147,-0.05341 -0.04704,-0.06459c-0.02557,-0.01118 -0.05489,-0.00723 -0.07691,0.01038c-0.02203,0.01761 -0.03342,0.04619 -0.02988,0.07498l0,0z" id="路径" fill="#686767"/>
      <path stroke="null" d="m8.47517,23.15607c0.00353,0.0288 0.02146,0.05344 0.04703,0.06463c0.02558,0.01119 0.05491,0.00723 0.07694,-0.01039c0.02203,-0.01761 0.03342,-0.04621 0.02986,-0.075c-0.00353,-0.0288 -0.02146,-0.05344 -0.04703,-0.06463c-0.02558,-0.01119 -0.05491,-0.00723 -0.07694,0.01039c-0.02203,0.01761 -0.03341,0.04621 -0.02986,0.075l0,0z" id="路径" fill="#686767"/>
      <path stroke="null" d="m8.40025,20.65473c0.02753,0.00332 0.05466,-0.00901 0.07116,-0.03233c0.01651,-0.02333 0.01988,-0.05411 0.00884,-0.08075c-0.01104,-0.02663 -0.0348,-0.04507 -0.06234,-0.04836c-0.02753,-0.00332 -0.05466,0.009 -0.07117,0.03233c-0.0165,0.02333 -0.01987,0.05411 -0.00883,0.08074c0.01104,0.02664 0.0348,0.04507 0.06234,0.04837l0,0z" id="路径" fill="#686767"/>
      <path stroke="null" d="m8.28231,19.50678c0.02753,0.00331 0.05465,-0.00902 0.07115,-0.03234c0.01649,-0.02332 0.01986,-0.0541 0.00883,-0.08072c-0.01103,-0.02663 -0.03478,-0.04507 -0.06231,-0.04838c-0.02753,-0.0033 -0.05464,0.00903 -0.07114,0.03235c-0.0165,0.02332 -0.01986,0.05409 -0.00883,0.08072c0.01103,0.02663 0.03478,0.04507 0.0623,0.04837l0,0z" id="路径" fill="#686767"/>
      <path stroke="null" d="m7.63728,27.56951c0.02748,0.00373 0.05478,-0.00819 0.0716,-0.03127c0.01682,-0.02308 0.0206,-0.05381 0.00992,-0.08061c-0.01068,-0.0268 -0.0342,-0.04559 -0.06169,-0.04928c-0.02748,-0.00373 -0.05478,0.00819 -0.0716,0.03127c-0.01682,0.02308 -0.0206,0.05381 -0.00992,0.08061c0.01068,0.02679 0.0342,0.04558 0.06169,0.04928l0,0z" id="路径" fill="#AEAFAF"/>
      <path stroke="null" d="m7.83651,25.38024c0.00776,0.02787 0.02912,0.04929 0.05605,0.05618c0.02692,0.00689 0.05531,-0.00179 0.07446,-0.02278c0.01915,-0.02099 0.02615,-0.05109 0.01837,-0.07896c-0.00776,-0.02787 -0.02912,-0.04929 -0.05605,-0.05618c-0.02692,-0.00689 -0.0553,0.0018 -0.07446,0.02278c-0.01915,0.02099 -0.02615,0.05109 -0.01837,0.07896l0,0z" id="路径" fill="#AEAFAF"/>
      <path stroke="null" d="m7.38346,23.24588c0.00777,0.02786 0.02913,0.04927 0.05605,0.05615c0.02692,0.00688 0.05529,-0.0018 0.07444,-0.02278c0.01915,-0.02098 0.02616,-0.05107 0.0184,-0.07893c-0.01201,-0.04307 -0.05508,-0.06779 -0.09619,-0.05521c-0.04111,0.01258 -0.06471,0.05769 -0.0527,0.10077z" id="路径" fill="#AEAFAF"/>
      <path stroke="null" d="m7.5238,21.877c0.00776,0.02787 0.02913,0.04928 0.05604,0.05617c0.02692,0.00689 0.05531,-0.0018 0.07446,-0.02278c0.01915,-0.02099 0.02616,-0.05108 0.01838,-0.07895c-0.00776,-0.02787 -0.02913,-0.04928 -0.05605,-0.05617c-0.02692,-0.00689 -0.0553,0.0018 -0.07445,0.02278c-0.01915,0.02099 -0.02616,0.05108 -0.01838,0.07895l0,0z" id="路径" fill="#AEAFAF"/>
      <path stroke="null" d="m8.24568,19.749c0.01385,0.02514 0.03945,0.04063 0.06715,0.04063c0.02771,0 0.05332,-0.01549 0.06717,-0.04063c0.01385,-0.02513 0.01385,-0.05611 0,-0.08125c-0.02142,-0.03886 -0.06885,-0.05217 -0.10594,-0.02974c-0.03709,0.02244 -0.0498,0.07213 -0.02838,0.11099l0,0z" id="路径" fill="#AEAFAF"/>
      <path stroke="null" d="m8.35313,27.7108c0.02749,0.00373 0.05479,-0.00819 0.07161,-0.03127c0.01681,-0.02308 0.0206,-0.05381 0.00992,-0.08061c-0.01068,-0.02679 -0.0342,-0.04558 -0.06169,-0.04928c-0.02749,-0.00373 -0.05478,0.00819 -0.0716,0.03127c-0.01682,0.02309 -0.0206,0.05382 -0.00992,0.08061c0.01068,0.0268 0.03419,0.04559 0.06168,0.04928l0,0z" id="路径" fill="#AEAFAF"/>
      <path stroke="null" d="m8.82206,21.64366c0.01816,0.02192 0.04611,0.03202 0.07331,0.0265c0.0272,-0.00552 0.04952,-0.02583 0.05856,-0.05327c0.00904,-0.02744 0.00341,-0.05784 -0.01475,-0.07976c-0.02808,-0.03389 -0.07706,-0.03751 -0.10941,-0.00809c-0.03234,0.02942 -0.03579,0.08074 -0.00771,0.11462l0,0z" id="路径" fill="#686767"/>
      <path stroke="null" d="m8.99124,25.15c0.00353,0.0288 0.02147,0.05343 0.04704,0.06462c0.02557,0.01119 0.0549,0.00723 0.07693,-0.01038c0.02203,-0.01762 0.03342,-0.04621 0.02987,-0.07501c-0.00354,-0.02879 -0.02147,-0.05343 -0.04704,-0.06462c-0.02557,-0.01118 -0.0549,-0.00723 -0.07693,0.01039c-0.02203,0.01761 -0.03342,0.04621 -0.02987,0.075l0,0z" id="路径" fill="#686767"/>
      <path stroke="null" d="m9.01353,28.20449c0.02749,0.00373 0.05478,-0.00819 0.0716,-0.03127c0.01682,-0.02308 0.0206,-0.05381 0.00992,-0.08061c-0.01068,-0.0268 -0.03419,-0.04558 -0.06169,-0.04928c-0.02748,-0.00373 -0.05478,0.00819 -0.0716,0.03127c-0.01682,0.02308 -0.0206,0.05381 -0.00992,0.08061c0.01068,0.0268 0.0342,0.04559 0.06169,0.04928l0,0z" id="路径" fill="#AEAFAF"/>
      <path stroke="null" d="m8.66298,27.08057c0.00776,0.02787 0.02913,0.04928 0.05605,0.05617c0.02692,0.00689 0.0553,-0.0018 0.07445,-0.02278c0.01915,-0.02099 0.02616,-0.05108 0.01838,-0.07895c-0.00776,-0.02787 -0.02913,-0.04928 -0.05605,-0.05617c-0.02692,-0.00688 -0.0553,0.0018 -0.07445,0.02278c-0.01915,0.02099 -0.02616,0.05108 -0.01838,0.07895l0,0z" id="路径" fill="#AEAFAF"/>
      <path stroke="null" d="m8.75869,23.88047c0.00776,0.02787 0.02913,0.04929 0.05605,0.05618c0.02693,0.00689 0.05531,-0.0018 0.07446,-0.02278c0.01915,-0.02099 0.02616,-0.05109 0.01838,-0.07896c-0.00776,-0.02787 -0.02913,-0.04929 -0.05605,-0.05618c-0.02692,-0.00689 -0.05531,0.00179 -0.07446,0.02278c-0.01915,0.02099 -0.02616,0.05109 -0.01838,0.07896l0,0z" id="路径" fill="#AEAFAF"/>
      <path stroke="null" d="m8.20159,14.88632c0.02659,0.00814 0.05531,0.00079 0.07534,-0.01927c0.02002,-0.02006 0.02831,-0.04979 0.02174,-0.07799c-0.00657,-0.0282 -0.027,-0.05058 -0.05359,-0.05872c-0.0266,-0.00814 -0.05532,-0.0008 -0.07534,0.01926c-0.02003,0.02006 -0.02832,0.04979 -0.02175,0.07799c0.00657,0.0282 0.027,0.05059 0.0536,0.05873l0,0z" id="路径" fill="#686767"/>
      <path stroke="null" d="m7.48453,19.32796c0.02659,0.00814 0.05531,0.0008 0.07534,-0.01926c0.02002,-0.02006 0.02831,-0.04979 0.02174,-0.07799c-0.00657,-0.0282 -0.027,-0.05059 -0.05359,-0.05873c-0.0266,-0.00814 -0.05532,-0.0008 -0.07534,0.01927c-0.02003,0.02006 -0.02832,0.04979 -0.02175,0.07799c0.00657,0.0282 0.027,0.05058 0.0536,0.05872l0,0z" id="路径" fill="#686767"/>
      <path stroke="null" d="m7.74929,18.91976c0.02093,0.01903 0.04995,0.02493 0.07614,0.01546c0.0262,-0.00947 0.04558,-0.03286 0.05085,-0.06136c0.00527,-0.0285 -0.00437,-0.05778 -0.0253,-0.07681c-0.02092,-0.01903 -0.04995,-0.02493 -0.07614,-0.01546c-0.02619,0.00947 -0.04558,0.03286 -0.05085,0.06136c-0.00526,0.0285 0.00438,0.05778 0.0253,0.07681l0,0z" id="路径" fill="#AEAFAF"/>
      <path stroke="null" d="m7.50047,16.67692c0.02748,0.00372 0.05476,-0.00821 0.07157,-0.03129c0.01681,-0.02307 0.02059,-0.05379 0.00992,-0.08058c-0.01067,-0.02679 -0.03418,-0.04558 -0.06165,-0.04929c-0.02748,-0.00371 -0.05477,0.00822 -0.07157,0.03129c-0.01681,0.02308 -0.02059,0.0538 -0.00992,0.08058c0.01067,0.02679 0.03417,0.04558 0.06165,0.04929z" id="路径" fill="#AEAFAF"/>
      <path stroke="null" d="m7.69653,14.49007c0.00777,0.02787 0.02913,0.04929 0.05605,0.05617c0.02692,0.00689 0.05531,-0.00179 0.07446,-0.02278c0.01915,-0.02098 0.02615,-0.05108 0.01838,-0.07894c-0.00776,-0.02787 -0.02913,-0.04929 -0.05605,-0.05617c-0.02692,-0.00689 -0.0553,0.00179 -0.07445,0.02278c-0.01915,0.02098 -0.02616,0.05108 -0.01839,0.07894l0,0z" id="路径" fill="#AEAFAF"/>
      <path stroke="null" d="m8.10195,15.42707c0.00777,0.02787 0.02913,0.04929 0.05605,0.05617c0.02692,0.00689 0.0553,-0.00179 0.07445,-0.02278c0.01915,-0.02098 0.02616,-0.05108 0.01839,-0.07894c-0.00777,-0.02787 -0.02913,-0.04929 -0.05605,-0.05617c-0.02692,-0.00689 -0.0553,0.00179 -0.07445,0.02278c-0.01915,0.02098 -0.02616,0.05108 -0.01839,0.07894l0,0z" id="路径" fill="#AEAFAF"/>
      <path stroke="null" d="m8.21334,16.81779c0.02748,0.00371 0.05476,-0.00822 0.07157,-0.0313c0.01681,-0.02307 0.02059,-0.05379 0.00992,-0.08058c-0.01067,-0.02679 -0.03417,-0.04558 -0.06165,-0.04929c-0.02748,-0.00371 -0.05476,0.00822 -0.07157,0.03129c-0.01681,0.02308 -0.02059,0.0538 -0.00992,0.08059c0.01067,0.02679 0.03417,0.04557 0.06165,0.04929l0,0z" id="路径" fill="#AEAFAF"/>
      <path stroke="null" d="m8.74986,18.52528c0.00325,-0.00326 0.0046,-0.0081 0.00353,-0.01268c-0.00107,-0.00458 -0.00439,-0.00822 -0.00871,-0.00954c-0.00668,-0.00205 -0.01368,0.00197 -0.01563,0.00897c-0.00195,0.007 0.00188,0.01433 0.00856,0.01638c0.00433,0.00132 0.00899,0.00013 0.01225,-0.00313z" id="路径" fill="#686767"/>
      <path stroke="null" d="m8.52586,16.18954c0.00776,0.02787 0.02913,0.04928 0.05605,0.05617c0.02692,0.00689 0.0553,-0.0018 0.07445,-0.02278c0.01915,-0.02099 0.02616,-0.05108 0.01838,-0.07895c-0.00776,-0.02787 -0.02912,-0.04928 -0.05604,-0.05617c-0.02692,-0.00689 -0.05531,0.0018 -0.07446,0.02278c-0.01915,0.02099 -0.02615,0.05108 -0.01838,0.07895l0,0z" id="路径" fill="#AEAFAF"/>
      <path stroke="null" d="m7.20685,41.74537c-0.17897,0 -0.346,-0.075 -0.4683,-0.20625c-0.12527,-0.13125 -0.19089,-0.30937 -0.18791,-0.49375l0.28336,-26.6875c0.00895,-0.375 0.30126,-0.675 0.65621,-0.675l0.75166,0c0.35197,0 0.64726,0.3 0.65621,0.66875l0.87992,26.68437l0,0.00313c0.00299,0.1875 -0.06264,0.3625 -0.18791,0.49687c-0.11931,0.13438 -0.28635,0.20938 -0.46532,0.20938l-1.91792,0zm0.05965,-0.75l1.79564,0l-0.87694,-26.5625l-0.63533,0l-0.28337,26.5625z" id="形状" fill="#3D6072"/>
     </g>
     <g stroke="null" id="手势-握住" transform="matrix(5.24564 3.51524 -3.67303 5.02027 81.6872 -48.5772)">
      <path stroke="null" d="m12.3019,30.15162c-0.13368,0 -0.25329,-0.05621 -0.33772,-0.15458c-0.00703,-0.00702 -0.64728,-0.76586 -1.45638,-1.60198c-0.33771,-0.35131 -0.75986,-0.78694 -0.91464,-1.60901c-0.15479,-0.82207 0.28846,-1.91816 0.65432,-2.19921c0.16885,-0.12648 0.36585,-0.15458 0.54175,-0.07027c0.0211,0.01406 0.04221,0.02108 0.06332,0.03513c-0.03518,-0.09836 -0.07036,-0.19673 -0.11257,-0.30212c-0.02111,-0.05621 -0.04222,-0.11242 -0.07036,-0.16161c-0.18996,-0.44968 -0.40104,-0.95557 -0.23218,-1.56685c0.197,-0.70262 0.71061,-1.13825 1.42121,-1.18744c0.28846,-0.02107 0.64025,0.04216 0.93574,0.16863c0.14775,-0.13349 0.3729,-0.23889 0.67543,-0.30212c0.51361,-0.1054 1.23125,-0.04919 1.68856,0.26699c0.45029,-0.1616 1.11164,0.02811 1.54082,0.33024c0.23921,0.16863 0.40807,0.37239 0.49953,0.5902c0.4925,0.09837 1.182,0.60426 1.30864,1.08204c0.18996,0.70965 -0.16886,2.33272 -0.33068,2.73321c-0.35178,0.9907 -0.66135,2.00951 -0.90056,3.03534c0,0.00702 -0.00704,0.01405 -0.00704,0.02108c-0.15479,0.52697 -0.64025,0.89233 -1.18903,0.89233l-3.77816,0l0,0z" id="路径" fill="#3D6072"/>
      <path stroke="null" d="m12.50593,29.27334l3.5882,0c0.15479,0 0.2955,-0.10539 0.34475,-0.25295c0.25328,-1.05393 0.56285,-2.10787 0.92871,-3.12667c0,-0.00703 0.00703,-0.02108 0.01407,-0.02811c0.14775,-0.33726 0.40103,-1.74251 0.2955,-2.16408c-0.06332,-0.1335 -0.38696,-0.37239 -0.56989,-0.43563c-0.11257,0.08432 -0.26736,0.11242 -0.40807,0.06324c-0.20404,-0.07026 -0.33068,-0.28808 -0.28846,-0.49887c0.0211,-0.09134 -0.06333,-0.1897 -0.14072,-0.25294c-0.22514,-0.19674 -0.53471,-0.28105 -0.70357,-0.28808c-0.04925,0.15458 -0.18292,0.27403 -0.35178,0.30213c-0.23218,0.03513 -0.45028,-0.11242 -0.49953,-0.33726c-0.00704,-0.02108 -0.08443,-0.10539 -0.2955,-0.1616c-0.40807,-0.11242 -0.87243,-0.03513 -1.01314,0.05621c0,0.18971 -0.11257,0.35834 -0.2955,0.42157c-0.18996,0.06324 -0.40103,-0.00702 -0.50657,-0.17565c-0.08443,-0.07026 -0.40807,-0.20376 -0.67542,-0.18268c-0.33772,0.02107 -0.54175,0.20376 -0.64025,0.54804c-0.08443,0.30213 0.02111,0.56913 0.197,0.9907c0.0211,0.05621 0.04925,0.11242 0.07035,0.17566c0.11258,0.28105 0.197,0.53399 0.2744,0.76586c0.07035,0.21079 0.12664,0.39347 0.197,0.53399c0.11257,0.25295 0.04925,0.54805 -0.16183,0.73776c-0.21107,0.18268 -0.5136,0.20376 -0.75281,0.05621c-0.04222,-0.02811 -0.08443,-0.05621 -0.12665,-0.07729c-0.1196,-0.07026 -0.21107,-0.18268 -0.35178,-0.35131c-0.11961,0.28807 -0.23218,0.71667 -0.16886,1.04691c0.0985,0.51994 0.32365,0.78694 0.68247,1.15933c0.6121,0.61831 1.1257,1.20851 1.35788,1.47551z" id="路径" fill="#F1B8B8"/>
     </g>
    </g>
   </g>
  </g>
 </g>
</svg>