<?xml version="1.0" encoding="UTF-8"?>
<svg width="4px" height="29px" viewBox="0 0 4 29" version="1.1" xmlns="http://www.w3.org/2000/svg" xmlns:xlink="http://www.w3.org/1999/xlink">
    <title>编组 4备份 2</title>
    <g id="页面-1" stroke="none" stroke-width="1" fill="none" fill-rule="evenodd">
        <g id="酷卡首页切图" transform="translate(-204.000000, -422.000000)" fill-rule="nonzero">
            <g id="编组-3" transform="translate(200.000000, 422.000000)">
                <g id="编组-4备份-2" transform="translate(4.772442, 0.000000)">
                    <path d="M1.01137845,4.41960075 C1.01914107,4.44747065 1.0405077,4.46888341 1.06742759,4.47577087 C1.09434747,4.48265833 1.12272954,4.4739738 1.14187967,4.45298953 C1.1610298,4.43200527 1.1680377,4.40191029 1.16026285,4.37404413 C1.15250024,4.34617422 1.13113361,4.32476147 1.10421372,4.317874 C1.07729384,4.31098654 1.04891177,4.31967107 1.02976164,4.34065534 C1.01061151,4.36163961 1.00360361,4.39173459 1.01137845,4.41960075 L1.01137845,4.41960075 Z" id="路径" fill="#686767"></path>
                    <path d="M1.66255163,5.10362109 C1.69003082,5.10733363 1.71731311,5.09540516 1.73412152,5.07232904 C1.75092994,5.04925291 1.75471088,5.01853494 1.7440401,4.99174628 C1.73336933,4.96495763 1.70986798,4.94616812 1.68238879,4.94245559 C1.6549096,4.93874306 1.62762731,4.95067152 1.61081889,4.97374765 C1.59401048,4.99682377 1.59022954,5.02754175 1.60090031,5.0543304 C1.61157109,5.08111906 1.63507244,5.09990857 1.66255163,5.10362109 L1.66255163,5.10362109 Z" id="路径" fill="#686767"></path>
                    <path d="M2.06381915,3.92119441 C2.10629829,3.92693348 2.14517514,3.8955078 2.15065302,3.85100317 C2.1561309,3.80649855 2.12613545,3.76576798 2.08365631,3.76002891 C2.05617712,3.75631638 2.02889483,3.76824484 2.01208642,3.79132096 C1.99527801,3.81439709 1.99149706,3.84511506 2.00216784,3.87190371 C2.01283861,3.89869237 2.03633996,3.91748188 2.06381915,3.92119441 L2.06381915,3.92119441 Z" id="路径" fill="#686767"></path>
                    <path d="M1.82334157,4.08566691 C1.82687333,4.11446487 1.84480441,4.13909974 1.87037754,4.15028794 C1.89595067,4.16147614 1.92527877,4.15751709 1.94730965,4.13990273 C1.96934053,4.12228837 1.98072551,4.09369608 1.97717422,4.06490075 C1.97364245,4.03610278 1.95571137,4.01146792 1.93013824,4.00027972 C1.90456511,3.98909152 1.87523701,3.99305057 1.85320614,4.01066493 C1.83117526,4.02827928 1.81979028,4.05687158 1.82334157,4.08566691 L1.82334157,4.08566691 Z" id="路径" fill="#AEAFAF"></path>
                    <path d="M0.74123535,4.85392078 C0.767830582,4.86206015 0.796550264,4.85471632 0.816575969,4.83465564 C0.836601675,4.81459496 0.844891023,4.78486513 0.838321496,4.75666509 C0.831751969,4.72846505 0.811321634,4.70607905 0.784726402,4.69793969 C0.75813117,4.68980032 0.729411488,4.69714415 0.709385783,4.71720483 C0.689360078,4.73726551 0.68107073,4.76699534 0.687640257,4.79519538 C0.694209784,4.82339542 0.714640118,4.84578142 0.74123535,4.85392078 Z" id="路径" fill="#AEAFAF"></path>
                    <path d="M0.861396452,3.85400278 C0.887997444,3.86216142 0.916732214,3.85482605 0.936769346,3.83476168 C0.956806477,3.81469731 0.965099401,3.78495466 0.958522144,3.75674507 C0.951944886,3.72853547 0.931497495,3.70614809 0.904887504,3.69802172 C0.878286512,3.68986308 0.849551742,3.69719845 0.829514611,3.71726282 C0.80947748,3.73732719 0.801184556,3.76706984 0.807761813,3.79527943 C0.81433907,3.82348903 0.834786461,3.84587641 0.861396452,3.85400278 L0.861396452,3.85400278 Z" id="路径" fill="#AEAFAF"></path>
                    <path d="M1.95770647,4.835453 C1.96123824,4.86425097 1.97916931,4.88888583 2.00474245,4.90007403 C2.03031558,4.91126223 2.05964368,4.90730318 2.08167455,4.88968882 C2.10370543,4.87207447 2.11509041,4.84348217 2.11153912,4.81468684 C2.10800736,4.78588888 2.09007628,4.76125401 2.06450315,4.75006581 C2.03893001,4.73887761 2.00960192,4.74283666 1.98757104,4.76045102 C1.96554016,4.77806538 1.95415518,4.80665767 1.95770647,4.835453 L1.95770647,4.835453 Z" id="路径" fill="#AEAFAF"></path>
                    <path d="M1.61747806,5.86315412 C1.62524068,5.89102403 1.64660731,5.91243678 1.6735272,5.91932425 C1.70044708,5.92621171 1.72882915,5.91752718 1.74797928,5.89654291 C1.76712941,5.87555864 1.77413731,5.84546366 1.76636246,5.8175975 C1.75859985,5.7897276 1.73723322,5.76831484 1.71031333,5.76142738 C1.68339345,5.75453992 1.65501138,5.76322445 1.63586125,5.78420872 C1.61671112,5.80519298 1.60970322,5.83528796 1.61747806,5.86315412 Z" id="路径" fill="#686767"></path>
                    <path d="M0.722124346,6.28471384 C0.72988696,6.31258375 0.75125359,6.3339965 0.778173478,6.34088396 C0.805093365,6.34777143 0.833475431,6.3390869 0.852625559,6.31810263 C0.871775688,6.29711836 0.878783589,6.26702338 0.871008746,6.23915722 C0.863246133,6.21128731 0.841879503,6.18987456 0.814959615,6.1829871 C0.788039728,6.17609963 0.759657662,6.18478417 0.740507534,6.20576843 C0.721357405,6.2267527 0.714349504,6.25684768 0.722124346,6.28471384 L0.722124346,6.28471384 Z" id="路径" fill="#686767"></path>
                    <path d="M0.600249908,5.288223 C0.608012521,5.3160929 0.629379152,5.33750566 0.656299039,5.34439312 C0.683218927,5.35128058 0.711600992,5.34259605 0.730751121,5.32161178 C0.749901249,5.30062752 0.75690915,5.27053254 0.749134308,5.24266637 C0.741371695,5.21479647 0.720005064,5.19338372 0.693085177,5.18649625 C0.666165289,5.17960879 0.637783224,5.18829332 0.618633095,5.20927759 C0.599482967,5.23026186 0.592475065,5.26035684 0.600249908,5.288223 L0.600249908,5.288223 Z" id="路径" fill="#686767"></path>
                    <path d="M2.26975821,6.54508769 C2.31223735,6.55082676 2.3511142,6.51940108 2.35659208,6.47489645 C2.36206996,6.43039183 2.33207451,6.38966126 2.28959537,6.38392219 C2.26211618,6.38020965 2.23483389,6.39213812 2.21802547,6.41521424 C2.20121706,6.43829037 2.19743612,6.46900834 2.20810689,6.495797 C2.21877767,6.52258565 2.24227902,6.54137516 2.26975821,6.54508769 L2.26975821,6.54508769 Z" id="路径" fill="#686767"></path>
                    <path d="M0.448993246,5.86991256 C0.475588478,5.87805193 0.50430816,5.8707081 0.524333865,5.85064742 C0.544359571,5.83058674 0.552648919,5.80085691 0.546079392,5.77265687 C0.539509865,5.74445683 0.51907953,5.72207083 0.492484298,5.71393147 C0.465889066,5.7057921 0.437169384,5.71313593 0.417143679,5.73319661 C0.397117974,5.75325729 0.388828626,5.78298712 0.395398153,5.81118716 C0.40196768,5.8393872 0.422398014,5.8617732 0.448993246,5.86991256 L0.448993246,5.86991256 Z" id="路径" fill="#AEAFAF"></path>
                    <path d="M1.34556513,6.29490544 C1.37216036,6.3030448 1.40088004,6.29570097 1.42090575,6.27564029 C1.44093145,6.25557962 1.4492208,6.22584979 1.44265128,6.19764975 C1.43608175,6.1694497 1.41565141,6.14706371 1.38905618,6.13892434 C1.36246095,6.13078498 1.33374127,6.13812881 1.31371556,6.15818949 C1.29368986,6.17825016 1.28540051,6.20797999 1.29197004,6.23618004 C1.29853956,6.26438008 1.3189699,6.28676607 1.34556513,6.29490544 Z" id="路径" fill="#AEAFAF"></path>
                    <path d="M1.46861797,5.29584119 C1.49521321,5.30398055 1.52393289,5.29663672 1.54395859,5.27657604 C1.5639843,5.25651537 1.57227364,5.22678554 1.56570412,5.1985855 C1.55913459,5.17038545 1.53870426,5.14799946 1.51210903,5.13986009 C1.48551379,5.13172073 1.45679411,5.13906456 1.4367684,5.15912523 C1.4167427,5.17918591 1.40845335,5.20891574 1.41502288,5.23711579 C1.4215924,5.26531583 1.44202274,5.28770183 1.46861797,5.29584119 L1.46861797,5.29584119 Z" id="路径" fill="#AEAFAF"></path>
                    <path d="M2.64880246,27.6875 C2.81583792,27.6875 2.95006284,27.54375 2.94708006,27.36875 L2.06716114,0.68125 C2.06417836,0.5125 1.92995344,0.375 1.76888354,0.375 L1.01722398,0.375 C0.856154074,0.375 0.721929154,0.509375 0.718946377,0.68125 L0.435582656,27.36875 C0.429617104,27.54375 0.563842024,27.6875 0.730877482,27.6875 L2.64880246,27.6875 Z" id="路径" fill="#F1B8B8"></path>
                    <path d="M1.14250057,7.30625 C1.09477616,7.49375 0.945637355,7.64375 0.841240194,7.809375 C0.796498554,7.79375 0.75473969,7.778125 0.709998049,7.7625 C0.671221961,7.553125 0.602618113,7.34375 0.605600889,7.134375 C0.605600889,7.003125 0.692101393,6.846875 0.778601898,6.75 C0.81439521,6.7125 0.996344547,6.76875 1.03213786,6.8375 C1.10372448,6.978125 1.17829388,7.175 1.14250057,7.30625 Z M0.817377986,17.49375 C1.01722398,17.621875 0.939671803,17.815625 0.868085179,17.996875 C0.862119626,18.009375 0.841240194,18.015625 0.805446882,18.040625 C0.638411425,17.953125 0.4922554,17.8375 0.614549217,17.571875 C0.638411425,17.515625 0.76965357,17.465625 0.817377986,17.49375 Z M1.62571029,23.515625 C1.44674373,23.11875 1.44674373,23.11875 1.93890177,22.978125 C1.83748739,23.2125 1.8852118,23.49375 1.62571029,23.515625 Z M1.13355224,14.903125 C1.28269105,15.01875 1.40498486,15.115625 1.61377918,15.278125 C1.20513887,15.21875 1.20513887,15.21875 1.13355224,14.903125 Z M1.26181161,21.61875 C1.19619054,21.646875 1.12758669,21.675 1.06196562,21.7 C1.04705174,21.603125 1.03213786,21.50625 1.01722398,21.40625 C1.05600007,21.390625 1.09179338,21.375 1.13056947,21.359375 C1.17531111,21.446875 1.22005275,21.534375 1.26181161,21.61875 L1.26181161,21.61875 Z M1.46464038,18.065625 C1.48551981,18.134375 1.47060593,18.21875 1.47060593,18.29375 C1.44674373,18.296875 1.42288152,18.3 1.40200209,18.30625 C1.36024322,18.196875 1.32146713,18.0875 1.27970827,17.978125 C1.3005877,17.9625 1.31848436,17.946875 1.33936379,17.93125 C1.38410543,17.971875 1.44674373,18.009375 1.46464038,18.065625 L1.46464038,18.065625 Z M1.93890177,25.246875 C1.9478501,25.2875 1.95381565,25.328125 1.96276398,25.365625 C1.87029792,25.4 1.77783186,25.434375 1.68536581,25.465625 C1.67045193,25.415625 1.65852082,25.365625 1.64360694,25.31875 C1.74502133,25.29375 1.84345294,25.26875 1.93890177,25.246875 Z M2.04926448,24.9375 C1.93591899,24.95625 1.84643571,24.975 1.72115912,24.996875 C1.82555628,24.771875 1.90609123,24.684375 2.04926448,24.9375 Z M1.76888354,16.740625 C1.7987113,16.675 1.85240127,16.625 1.89416013,16.56875 C1.91205679,16.584375 1.92697067,16.2875 1.94486732,16.303125 C1.91503956,16.421875 1.88222903,16.85 1.85240127,16.96875 C1.8106424,16.959375 1.76888354,16.946875 1.73010745,16.9375 C1.73905578,16.871875 1.74203855,16.796875 1.76888354,16.740625 Z" id="形状" fill="#09A7AF"></path>
                    <path d="M1.93612345,0.784425 C1.93612345,0.742758333 1.63916966,0.642741667 1.04526207,0.484375 C0.854364409,0.540625 0.73982581,0.6125 0.73982581,0.690625 L0.778005343,14.678125 L2.49608433,14.6625 L1.93612345,0.784425 Z" id="路径" fill="#F2F0F0"></path>
                    <path d="M0.893747343,7.32799287 C0.911912174,7.34991176 0.939858561,7.36001274 0.96705937,7.35449089 C0.994260178,7.34896903 1.01658296,7.32866323 1.02561893,7.30122249 C1.03465491,7.27378175 1.0290313,7.24337497 1.01086646,7.22145609 C0.99270163,7.19953721 0.964755242,7.18943622 0.937554434,7.19495808 C0.910353625,7.20047994 0.888030846,7.22078574 0.878994872,7.24822648 C0.869958897,7.27566721 0.875582508,7.306074 0.893747343,7.32799287 Z" id="路径" fill="#686767"></path>
                    <path d="M1.06556789,10.8326161 C1.06909965,10.861414 1.08703073,10.8860489 1.11260386,10.8972371 C1.13817699,10.9084253 1.16750509,10.9044662 1.18953597,10.8868519 C1.21156684,10.8692375 1.22295183,10.8406452 1.21940054,10.8118499 C1.21586877,10.7830519 1.19793769,10.7584171 1.17236456,10.7472289 C1.14679143,10.7360407 1.11746333,10.7399997 1.09543246,10.7576141 C1.07340158,10.7752284 1.06201659,10.8038207 1.06556789,10.8326161 L1.06556789,10.8326161 Z" id="路径" fill="#686767"></path>
                    <path d="M1.78853911,12.0932406 C1.81513434,12.1013799 1.84385402,12.0940361 1.86387973,12.0739754 C1.88390543,12.0539147 1.89219478,12.0241849 1.88562525,11.9959849 C1.87905572,11.9677848 1.85862539,11.9453988 1.83203016,11.9372595 C1.80543493,11.9291201 1.77671524,11.9364639 1.75668954,11.9565246 C1.73666383,11.9765853 1.72837449,12.0063151 1.73494401,12.0345152 C1.74151354,12.0627152 1.76194387,12.0851012 1.78853911,12.0932406 Z" id="路径" fill="#686767"></path>
                    <path d="M1.78165945,10.6949205 C1.78520014,10.7237103 1.80313204,10.7483342 1.82870039,10.7595166 C1.85426873,10.770699 1.88358908,10.766741 1.90561673,10.7491335 C1.92764439,10.7315261 1.93903282,10.7029441 1.93549213,10.6741543 C1.93195144,10.6453645 1.91401954,10.6207406 1.88845119,10.6095582 C1.86288285,10.5983758 1.8335625,10.6023338 1.81153485,10.6199413 C1.7895072,10.6375487 1.77811876,10.6661306 1.78165945,10.6949205 L1.78165945,10.6949205 Z" id="路径" fill="#686767"></path>
                    <path d="M1.92462805,9.47320356 C1.92815822,9.50200298 1.94608914,9.52663981 1.97166313,9.53782906 C1.99723711,9.54901831 2.0265666,9.54505907 2.04859805,9.52744348 C2.07062951,9.5098279 2.08201388,9.48123375 2.0784607,9.45243744 C2.07493054,9.42363802 2.05699961,9.39900119 2.03142563,9.38781194 C2.00585164,9.37662269 1.97652215,9.38058193 1.9544907,9.39819752 C1.93245924,9.4158131 1.92107487,9.44440725 1.92462805,9.47320356 L1.92462805,9.47320356 Z" id="路径" fill="#686767"></path>
                    <path d="M1.84970445,6.97185912 C1.87723744,6.97517873 1.90436859,6.9628526 1.92087269,6.93952621 C1.9373768,6.91619981 1.94074498,6.88541912 1.92970784,6.85878477 C1.9186707,6.83215042 1.89490605,6.81371124 1.86737033,6.81041659 C1.83983733,6.80709699 1.81270618,6.81942312 1.79620208,6.84274951 C1.77969798,6.86607591 1.7763298,6.8968566 1.78736693,6.92349095 C1.79840407,6.9501253 1.82216872,6.96856448 1.84970445,6.97185912 L1.84970445,6.97185912 Z" id="路径" fill="#686767"></path>
                    <path d="M1.73177357,5.82391412 C1.7593,5.8272203 1.78641902,5.81488995 1.80291515,5.79156778 C1.81941129,5.76824562 1.82277839,5.73747484 1.81174809,5.7108465 C1.8007178,5.68421815 1.77696588,5.66577773 1.74943945,5.66247156 C1.72191302,5.65916538 1.694794,5.67149574 1.67829786,5.69481791 C1.66180172,5.71814007 1.65843462,5.74891085 1.66946492,5.77553919 C1.68049521,5.80216753 1.70424714,5.82060795 1.73177357,5.82391412 L1.73177357,5.82391412 Z" id="路径" fill="#686767"></path>
                    <path d="M1.08673558,13.8866414 C1.11422252,13.8903704 1.14151948,13.8784473 1.15833764,13.8553662 C1.17515581,13.832285 1.17893823,13.8015551 1.16825923,13.774759 C1.15758024,13.7479629 1.13406341,13.7291747 1.10657274,13.725476 C1.07908579,13.721747 1.05178883,13.7336701 1.03497067,13.7567512 C1.01815251,13.7798324 1.01437009,13.8105624 1.02504908,13.8373584 C1.03572807,13.8641545 1.0592449,13.8829427 1.08673558,13.8866414 L1.08673558,13.8866414 Z" id="路径" fill="#AEAFAF"></path>
                    <path d="M1.285967,11.697369 C1.29372594,11.7252435 1.31509296,11.7466615 1.34201554,11.7535514 C1.36893812,11.7604412 1.3973238,11.7517556 1.41647497,11.7307678 C1.43562615,11.70978 1.44263167,11.6796804 1.4348514,11.6518124 C1.42709245,11.6239379 1.40572544,11.6025199 1.37880286,11.59563 C1.35188028,11.5887402 1.3234946,11.5974258 1.30434342,11.6184136 C1.28519225,11.6394014 1.27818673,11.6695011 1.285967,11.697369 L1.285967,11.697369 Z" id="路径" fill="#AEAFAF"></path>
                    <path d="M0.832919532,9.56300647 C0.840687069,9.59087024 0.862053176,9.6122759 0.888969446,9.61916015 C0.915885716,9.6260444 0.944262928,9.61736136 0.963411661,9.59638184 C0.982560394,9.57540232 0.989571499,9.54531361 0.981803962,9.51744984 C0.969796389,9.47437619 0.926733413,9.44965629 0.885620113,9.46223641 C0.844506813,9.47481652 0.820911959,9.51993281 0.832919532,9.56300647 Z" id="路径" fill="#AEAFAF"></path>
                    <path d="M0.97325455,8.19412753 C0.981017163,8.22199744 1.00238379,8.24341019 1.02930368,8.25029765 C1.05622357,8.25718512 1.08460563,8.24850058 1.10375576,8.22751632 C1.12290589,8.20653205 1.12991379,8.17643707 1.12213895,8.14857091 C1.11437634,8.120701 1.09300971,8.09928825 1.06608982,8.09240079 C1.03916993,8.08551332 1.01078787,8.09419785 0.991637737,8.11518212 C0.972487609,8.13616639 0.965479708,8.16626137 0.97325455,8.19412753 L0.97325455,8.19412753 Z" id="路径" fill="#AEAFAF"></path>
                    <path d="M1.69513479,6.06613428 C1.70898815,6.09127312 1.73459022,6.10675929 1.76229695,6.10675929 C1.79000368,6.10675929 1.81560575,6.09127313 1.82945912,6.06613429 C1.84331248,6.04099545 1.84331249,6.01002312 1.82945912,5.98488428 C1.80804368,5.946023 1.76061351,5.93270814 1.72352087,5.9551447 C1.68642823,5.97758127 1.67371935,6.027273 1.69513479,6.06613428 L1.69513479,6.06613428 Z" id="路径" fill="#AEAFAF"></path>
                    <path d="M1.80259266,14.0279344 C1.83007961,14.0316633 1.85737657,14.0197402 1.87419473,13.9966591 C1.89101289,13.973578 1.89479532,13.942848 1.88411632,13.9160519 C1.87343733,13.8892558 1.8499205,13.8704676 1.82242982,13.8667689 C1.79494288,13.8630399 1.76764592,13.8749631 1.75082776,13.8980442 C1.73400959,13.9211253 1.73022717,13.9518553 1.74090617,13.9786514 C1.75158516,14.0054475 1.77510199,14.0242357 1.80259266,14.0279344 L1.80259266,14.0279344 Z" id="路径" fill="#AEAFAF"></path>
                    <path d="M2.27151813,7.96079328 C2.28968297,7.98271216 2.31762936,7.99281314 2.34483017,7.98729128 C2.37203098,7.98176942 2.39435376,7.96146362 2.40338973,7.93402287 C2.4124257,7.90658213 2.40680209,7.87617535 2.38863725,7.85425647 C2.36055685,7.82037282 2.31157517,7.81675377 2.27923362,7.84617309 C2.24689207,7.87559242 2.24343773,7.92690963 2.27151813,7.96079328 L2.27151813,7.96079328 Z" id="路径" fill="#686767"></path>
                    <path d="M2.44070125,11.4671305 C2.44423301,11.4959284 2.46216409,11.5205633 2.48773722,11.5317515 C2.51331035,11.5429397 2.54263845,11.5389806 2.56466933,11.5213663 C2.5867002,11.5037519 2.59808519,11.4751596 2.5945339,11.4463643 C2.59100213,11.4175663 2.57307105,11.3929315 2.54749792,11.3817433 C2.52192479,11.3705551 2.49259669,11.3745141 2.47056582,11.3921285 C2.44853494,11.4097428 2.43714995,11.4383351 2.44070125,11.4671305 L2.44070125,11.4671305 Z" id="路径" fill="#686767"></path>
                    <path d="M2.46298631,14.5216229 C2.49047393,14.5253533 2.51777213,14.5134306 2.53459112,14.4903491 C2.55141011,14.4672675 2.55519266,14.4365365 2.54451296,14.4097398 C2.53383326,14.3829431 2.5103151,14.364155 2.48282345,14.3604575 C2.45533583,14.3567271 2.42803763,14.3686498 2.41121864,14.3917313 C2.39439964,14.4148129 2.3906171,14.4455439 2.4012968,14.4723406 C2.4119765,14.4991373 2.43549466,14.5179254 2.46298631,14.5216229 L2.46298631,14.5216229 Z" id="路径" fill="#AEAFAF"></path>
                    <path d="M2.11243732,13.3976994 C2.12019994,13.4255693 2.14156657,13.446982 2.16848645,13.4538695 C2.19540634,13.460757 2.22378841,13.4520724 2.24293854,13.4310882 C2.26208866,13.4101039 2.26909656,13.3800089 2.26132172,13.3521427 C2.25355911,13.3242728 2.23219248,13.3028601 2.20527259,13.2959726 C2.1783527,13.2890852 2.14997064,13.2977697 2.13082051,13.318754 C2.11167038,13.3397382 2.10466248,13.3698332 2.11243732,13.3976994 L2.11243732,13.3976994 Z" id="路径" fill="#AEAFAF"></path>
                    <path d="M2.20815374,10.1975967 C2.21591268,10.2254712 2.2372797,10.2468892 2.26420228,10.2537791 C2.29112486,10.2606689 2.31951054,10.2519833 2.33866171,10.2309955 C2.35781289,10.2100077 2.36481841,10.179908 2.35703814,10.1520401 C2.3492792,10.1241656 2.32791218,10.1027476 2.3009896,10.0958577 C2.27406702,10.0889679 2.24568134,10.0976535 2.22653017,10.1186413 C2.20737899,10.1396291 2.20037347,10.1697287 2.20815374,10.1975967 L2.20815374,10.1975967 Z" id="路径" fill="#AEAFAF"></path>
                    <path d="M1.65104655,1.20344844 C1.67764179,1.2115878 1.70636147,1.20424397 1.72638717,1.18418329 C1.74641288,1.16412262 1.75470222,1.13439279 1.7481327,1.10619275 C1.74156317,1.0779927 1.72113284,1.05560671 1.69453761,1.04746734 C1.66794237,1.03932798 1.63922269,1.04667181 1.61919698,1.06673248 C1.59917128,1.08679316 1.59088193,1.11652299 1.59745146,1.14472304 C1.60402098,1.17292308 1.62445132,1.19530908 1.65104655,1.20344844 L1.65104655,1.20344844 Z" id="路径" fill="#686767"></path>
                    <path d="M0.933985558,5.64509125 C0.96058079,5.65323062 0.989300472,5.64588678 1.00932618,5.62582611 C1.02935188,5.60576543 1.03764123,5.5760356 1.0310717,5.54783556 C1.02450218,5.51963552 1.00407184,5.49724952 0.97747661,5.48911016 C0.950881377,5.48097079 0.922161694,5.48831462 0.902135987,5.5083753 C0.88211028,5.52843597 0.873820932,5.55816581 0.88039046,5.58636585 C0.886959988,5.61456589 0.907390324,5.63695189 0.933985558,5.64509125 L0.933985558,5.64509125 Z" id="路径" fill="#686767"></path>
                    <path d="M1.19875334,5.23688756 C1.21967453,5.2559218 1.24869943,5.26181563 1.2748933,5.25234863 C1.30108717,5.24288163 1.32046995,5.21949227 1.32573944,5.19099219 C1.33100893,5.1624921 1.32136445,5.13321176 1.30043943,5.11418216 C1.27951824,5.09514792 1.25049334,5.08925409 1.22429947,5.09872109 C1.1981056,5.10818809 1.17872282,5.13157745 1.17345333,5.16007753 C1.16818384,5.18857762 1.17782832,5.21785795 1.19875334,5.23688756 L1.19875334,5.23688756 Z" id="路径" fill="#AEAFAF"></path>
                    <path d="M0.949927243,2.99405478 C0.977406432,2.99776731 1.00468872,2.98583885 1.02149714,2.96276272 C1.03830555,2.9396866 1.04208649,2.90896863 1.03141572,2.88217997 C1.02074494,2.85539132 0.997243593,2.83660181 0.969764404,2.83288928 C0.942285215,2.82917675 0.915002926,2.84110521 0.898194511,2.86418134 C0.881386096,2.88725746 0.877605155,2.91797543 0.88827593,2.94476409 C0.898946706,2.97155275 0.922448054,2.99034225 0.949927243,2.99405478 Z" id="路径" fill="#AEAFAF"></path>
                    <path d="M1.14599284,0.807203313 C1.15375545,0.835073217 1.17512208,0.85648597 1.20204197,0.863373433 C1.22896186,0.870260896 1.25734392,0.861576366 1.27649405,0.840592097 C1.29564418,0.819607828 1.30265208,0.78951285 1.29487724,0.761646688 C1.28711462,0.733776783 1.26574799,0.71236403 1.23882811,0.705476567 C1.21190822,0.698589104 1.18352615,0.707273634 1.16437602,0.728257903 C1.1452259,0.749242172 1.13821799,0.77933715 1.14599284,0.807203313 L1.14599284,0.807203313 Z" id="路径" fill="#AEAFAF"></path>
                    <path d="M1.55141137,1.74420272 C1.55917398,1.77207262 1.58054061,1.79348538 1.6074605,1.80037284 C1.63438038,1.8072603 1.66276245,1.79857577 1.68191258,1.7775915 C1.70106271,1.75660723 1.70807061,1.72651226 1.70029577,1.69864609 C1.69253315,1.67077619 1.67116652,1.64936344 1.64424663,1.64247597 C1.61732675,1.63558851 1.58894468,1.64427304 1.56979455,1.66525731 C1.55064442,1.68624158 1.54363652,1.71633656 1.55141137,1.74420272 L1.55141137,1.74420272 Z" id="路径" fill="#AEAFAF"></path>
                    <path d="M1.66280003,3.13491703 C1.69027922,3.13862956 1.71756151,3.12670109 1.73436992,3.10362496 C1.75117833,3.08054883 1.75495926,3.04983086 1.74428848,3.02304221 C1.7336177,2.99625356 1.71011635,2.97746406 1.68263716,2.97375153 C1.65515798,2.970039 1.62787569,2.98196747 1.61106728,3.0050436 C1.59425887,3.02811973 1.59047794,3.0588377 1.60114871,3.08562635 C1.61181949,3.11241501 1.63532084,3.13120451 1.66280003,3.13491703 L1.66280003,3.13491703 Z" id="路径" fill="#AEAFAF"></path>
                    <path d="M2.19931677,4.84240589 C2.20257141,4.83914557 2.20391862,4.83431379 2.20285092,4.82973064 C2.20178322,4.82514749 2.19846282,4.82150925 2.19414049,4.82018642 C2.18745873,4.81814149 2.1804598,4.82215866 2.17850794,4.82915901 C2.17655609,4.83615935 2.18039043,4.84349199 2.18707219,4.84553691 C2.19139452,4.84685975 2.19606214,4.84566621 2.19931677,4.84240589 Z" id="路径" fill="#686767"></path>
                    <path d="M1.97531917,2.50666759 C1.98308178,2.5345375 2.00444841,2.55595025 2.0313683,2.56283771 C2.05828819,2.56972518 2.08667025,2.56104065 2.10582038,2.54005638 C2.12497051,2.51907211 2.13197841,2.48897713 2.12420357,2.46111097 C2.11644096,2.43324106 2.09507432,2.41182831 2.06815444,2.40494085 C2.04123455,2.39805338 2.01285248,2.40673792 1.99370236,2.42772218 C1.97455223,2.44870645 1.96754433,2.47880143 1.97531917,2.50666759 L1.97531917,2.50666759 Z" id="路径" fill="#AEAFAF"></path>
                    <path d="M0.656308081,28.0625 C0.47734152,28.0625 0.310306063,27.9875 0.188012246,27.85625 C0.062735653,27.725 -0.00288541946,27.546875 9.73565639e-05,27.3625 L0.283461079,0.675 C0.292409407,0.3 0.584721457,0 0.939671803,0 L1.69133136,0 C2.04329893,0 2.33859376,0.3 2.34754208,0.66875 L3.22746101,27.353125 L3.22746101,27.35625 C3.23044379,27.54375 3.16482271,27.71875 3.03954612,27.853125 C2.92023508,27.9875 2.75319962,28.0625 2.57423306,28.0625 L0.656308081,28.0625 Z M0.715963601,27.3125 L2.51159477,27.3125 L1.63465862,0.75 L0.999327323,0.75 L0.715963601,27.3125 Z" id="形状" fill="#3D6072"></path>
                </g>
            </g>
        </g>
    </g>
</svg>