<?xml version="1.0" standalone="no"?><!DOCTYPE svg PUBLIC "-//W3C//DTD SVG 1.1//EN" "http://www.w3.org/Graphics/SVG/1.1/DTD/svg11.dtd"><svg t="1640853147671" class="icon" viewBox="0 0 1024 1024" version="1.1" xmlns="http://www.w3.org/2000/svg" p-id="16844" width="128" height="128" xmlns:xlink="http://www.w3.org/1999/xlink"><defs><style type="text/css"></style></defs><path d="M624.679592 411.991001s-83.379228 46.225747-83.379228 126.204405v36.921067H451.519581v-36.921067c0-79.978657-83.375151-126.204405-83.375151-126.204405" fill="#FFE600" p-id="16845"></path><path d="M297.694711 112.944624s-21.528795-32.321734-67.668917-32.321734c-46.148276 0-73.829903 48.48464-73.829902 72.720844 0 24.240281-6.140599 145.086952 176.128375 213.942398" fill="#FFFFFF" p-id="16846"></path><path d="M311.268453 103.9009c-1.07644-1.61466-26.992542-39.583625-81.242659-39.583626-58.323462 0-90.139596 58.816831-90.139596 89.030537l-0.008154 2.197732C131.678345 277.199543 240.932902 350.197651 326.55879 382.54385a16.31377 16.31377 0 0 0 11.526876-30.515435C227.636424 310.304142 171.922513 244.270273 172.49743 155.757569l0.008155-2.413835c0-17.231191 21.732666-56.411151 57.520209-56.411151 36.293144 0 53.463174 24.146501 54.176723 25.178089l-0.085626-0.122323a16.309693 16.309693 0 0 0 22.617467 4.52594 16.305616 16.305616 0 0 0 4.534095-22.613389z" fill="#6E6E96" p-id="16847"></path><path d="M697.053855 112.944624s21.516563-32.321734 67.668916-32.321734c46.156431 0 73.838058 48.48464 73.838058 72.720844 0 24.240281 6.140599 145.086952-176.132453 213.942398" fill="#FFFFFF" p-id="16848"></path><path d="M710.627597 121.984272c-0.057084 0.085626-0.024465 0.040774-0.085626 0.118245 0.713549-1.027511 17.875424-25.169934 54.176723-25.169934 35.795699 0 57.524287 39.17996 57.524287 56.411151l0.012232 2.409757c0.574917 88.512704-55.138995 154.546574-165.596391 196.270846a16.317848 16.317848 0 0 0-9.500396 21.023194 16.321925 16.321925 0 0 0 21.023195 9.492242c85.625888-32.346199 187.524773-97.980481 186.692978-226.998308l-0.012232-2.197731c0-38.539805-31.820211-89.030537-90.143673-89.030537-54.266426 0-80.166219 37.973043-81.246736 39.587703a16.301538 16.301538 0 0 0 4.534094 22.613389 16.309693 16.309693 0 0 0 22.621545-4.530017z" fill="#6E6E96" p-id="16849"></path><path d="M303.855697 24.46454v224.57224s-12.297509 210.741621 210.733467 210.741622c0 0 179.973385-23.070061 179.973385-210.741622V24.46454H303.855697z" fill="#F2BE00" p-id="16850"></path><path d="M305.86179 22.458447v203.520505s-9.259828 190.982428 158.746319 190.982428c0 0 135.566169-20.904949 135.566169-190.982428V22.458447H305.86179z" fill="#FFE600" p-id="16851"></path><path d="M447.442158 541.220854s43.644739-99.21594 93.858206 0l39.338979-96.500376s-116.887493 38.054591-161.739148 6.797064c0 0 33.907852 41.769124 28.541963 89.703312z" fill="#F2BE00" p-id="16852"></path><path d="M320.16539 40.774233l284.086311 34.93944V40.774233zM417.110206 597.558611l128.903659 28.256543-18.144534-28.256543z" fill="#F2B400" p-id="16853"></path><path d="M616.769391 397.724097c-3.751229 2.079486-91.782798 49.031015-91.782798 177.388299l32.619386 0.754323v-0.754323a16.309693 16.309693 0 0 0-16.309693-16.309693H451.519581a16.309693 16.309693 0 0 0-16.309693 16.309693v0.758401a16.309693 16.309693 0 0 0 32.619386 0v-37.671314c0-72.072534-88.027491-138.391823-91.774643-140.467231a16.309693 16.309693 0 1 0-15.816325 28.52973l-0.028542-0.016309c0.750246 0.419975 75.000123 47.020845 75.000124 138.701707l32.619386 10.931571v-0.7584a16.309693 16.309693 0 0 1-16.309693 16.309693h89.780783a16.309693 16.309693 0 0 1-16.309693-16.309693v0.754323a16.309693 16.309693 0 1 0 32.619386 0v-29.512389c0-69.185718 80.529109-125.967914 81.279355-126.383812l-6.299619 2.209964c7.881659-4.36692 10.723623-10.218023 6.356703-18.095605a16.31377 16.31377 0 0 0-22.177105-6.368935z" fill="#6E6E96" p-id="16854"></path><path d="M650.913733 924.070511c0 41.508169-36.696809 75.46495-81.548465 75.464949h-347.967301c-44.851656 0-81.548465-33.956781-81.548465-75.464949 0-41.504091 36.696809-75.460872 81.548465-75.460873h347.967301c44.851656 0.004077 81.548465 33.960858 81.548465 75.460873z" fill="#FF8C8C" p-id="16855"></path><path d="M648.875021 924.070511c0 40.488813-35.669299 73.426238-79.509753 73.426238h-347.967301c-43.840455 0-79.509754-32.937425-79.509754-73.426238 0-40.484736 35.669299-73.422161 79.509754-73.422161h347.967301c43.840455 0.004077 79.509754 32.941503 79.509753 73.422161z m-79.509753-77.499584h-347.967301c-46.091193 0-83.587177 34.760033-83.587177 77.499584 0 42.731396 37.495984 77.503661 83.587177 77.503661h347.967301c46.091193 0 83.587177-34.764111 83.587177-77.503661 0-42.731396-37.500062-77.495506-83.587177-77.499584z" fill="#6E6E96" p-id="16856"></path><path d="M650.913733 924.070511c0 41.508169-36.696809 75.46495-81.548465 75.464949h-347.967301c-44.851656 0-81.548465-33.956781-81.548465-75.464949 0-41.504091 36.696809-75.460872 81.548465-75.460873h347.967301c44.851656 0.004077 81.548465 33.960858 81.548465 75.460873z" fill="#FF8C8C" p-id="16857"></path><path d="M518.850071 865.95092l-20.387116 27.290193H152.509901l40.146309-28.541962z" fill="#FFFFFF" opacity=".4" p-id="16858"></path><path d="M634.60404 924.070511c0 32.619386-29.271822 59.155257-65.238772 59.155256h-347.967301c-35.971028 0-65.238772-26.535871-65.238772-59.155256 0-32.615309 29.267744-59.151179 65.238772-59.151179h347.967301c35.971028 0.004077 65.238772 26.539948 65.238772 59.151179z m-65.238772-91.770566h-347.967301c-53.960619 0-97.858158 41.169743-97.858158 91.770566 0 50.6049 43.897539 91.774643 97.858158 91.774642h347.967301c53.956542 0 97.858158-41.169743 97.858158-91.774642 0-50.600823-43.897539-91.766488-97.858158-91.770566z" fill="#6E6E96" p-id="16859"></path><path d="M949.319954 999.531383h-360.917197c-44.851656 0-81.548465-33.956781-81.548465-75.46495 0-41.504091 36.696809-75.460872 81.548465-75.460872h360.917197" fill="#F0F0FF" p-id="16860"></path><path d="M949.319954 997.492671h-360.917197c-43.84861 0-79.509754-32.937425-79.509754-73.426238 0-40.484736 35.669299-73.422161 79.509754-73.42216h360.917197v-4.077424h-360.917197c-46.09527 0-83.587177 34.760033-83.587177 77.499584 0 42.731396 37.500062 77.503661 83.587177 77.503662h360.917197v-4.077424z" fill="#6E6E96" p-id="16861"></path><path d="M373.090344 773.156921c0 41.500014 36.696809 75.456795 81.548466 75.456795h347.971378c44.851656 0 81.548465-33.956781 81.548465-75.456795 0-41.508169-36.696809-75.46495-81.548465-75.46495H454.63881c-44.851656 0.004077-81.548465 33.960858-81.548466 75.46495z" fill="#8AE9FF" p-id="16862"></path><path d="M371.051633 773.156921c0 42.727318 37.495984 77.495506 83.587177 77.495507h347.971378c22.20157 0 43.147293-8.069221 58.979927-22.707171 15.869331-14.686879 24.607249-34.140265 24.60725-54.788336 0-42.731396-37.495984-77.503661-83.587177-77.503661H454.63881c-46.091193 0.004077-83.587177 34.768188-83.587177 77.503661z m83.587177-73.422161h347.971378c43.840455 0 79.509754 32.937425 79.509754 73.426238 0 19.490083-8.273092 37.891494-23.302474 51.787353-15.066079 13.948865-35.033221 21.63073-56.20728 21.630731H454.63881c-43.840455 0-79.509754-32.933348-79.509754-73.418084 0-40.488813 35.669299-73.426238 79.509754-73.426238z" fill="#6E6E96" p-id="16863"></path><path d="M373.090344 773.156921c0 41.500014 36.696809 75.456795 81.548466 75.456795h347.971378c44.851656 0 81.548465-33.956781 81.548465-75.456795 0-41.508169-36.696809-75.46495-81.548465-75.46495H454.63881c-44.851656 0.004077-81.548465 33.960858-81.548466 75.46495z" fill="#8AE9FF" p-id="16864"></path><path d="M371.455298 605.387264c9.047802-13.272013 29.593938-24.138346 45.654908-24.138346h161.665755c16.06097 0 36.611183 10.862256 45.663063 24.138346l11.127288 16.309693c9.047802 13.284245 16.444248 34.523543 16.444248 47.216561s-13.14969 23.061906-29.21066 23.061906H373.090344c-16.065048 0-29.206583-10.377042-29.206582-23.061906s7.396446-33.932316 16.448325-47.216561l11.123211-16.309693z" fill="#F2B400" p-id="16865"></path><path d="M385.049427 598.590199c9.047802-13.272013 29.593938-24.138346 45.650831-24.138346h52.276643c16.065048 0 36.611183 10.862256 45.663063 24.138346l11.127288 16.309693c9.047802 13.284245 16.444248 34.523543 16.444248 47.216561s-13.153767 23.061906-29.218815 23.061906H386.680396c-16.06097 0-29.206583-10.377042-29.206583-23.061906s7.392368-33.932316 16.448326-47.216561l11.127288-16.309693z" fill="#FFE600" p-id="16866"></path><path d="M384.931182 614.573698c5.961193-8.746073 21.598111-17.015087 32.179024-17.015087h161.665755c10.584991 0 26.225986 8.269014 32.191256 17.019165l11.127288 16.309693c7.787878 11.437172 13.610439 29.508312 13.610439 38.026049 0 2.315976-5.019308 6.752213-12.905044 6.752213H373.090344c-7.873504 0-12.89689-4.436237-12.896889-6.752213 0-8.521815 5.82256-26.588877 13.614516-38.030127l11.123211-16.309693z m-38.074979-2.063176c-10.992733 16.130286-19.282135 40.374645-19.282134 56.402996 0 21.708201 20.419736 39.371599 45.516275 39.371599h249.705478c25.100618 0 45.524431-17.663398 45.524431-39.371599 0-16.020196-8.281247-40.264555-19.282135-56.398919 0-0.008155-11.127288-16.317848-11.127288-16.317847-12.150721-17.81834-37.577533-31.257527-59.138947-31.257527H417.110206c-21.561414 0-46.980071 13.439187-59.130792 31.261604l-11.123211 16.309693z" fill="#6E6E96" p-id="16867"></path><path d="M156.228511 952.641016h368.684688v32.619386H156.228511z" fill="#6E6E96" opacity=".15" p-id="16868"></path><path d="M493.651595 708.289194l20.387117 27.290194H859.991766l-40.14631-28.541963z" fill="#FFFFFF" opacity=".4" p-id="16869"></path><path d="M356.780651 773.156921c0 50.596745 43.897539 91.766488 97.858159 91.766488h347.971378c25.810089 0 50.201235-9.418848 68.671963-26.503251 18.817308-17.414675 29.186196-40.594826 29.186195-65.263237 0-50.600823-43.905694-91.774643-97.858158-91.774643H454.63881c-53.960619 0.004077-97.858158 41.17382-97.858159 91.774643z m97.858159-59.151179h347.971378c35.971028 0 65.238772 26.539948 65.238772 59.155256 0 15.473821-6.650277 30.148468-18.723527 41.320608-12.423909 11.494256-28.949705 17.826494-46.515245 17.826494H454.63881c-35.971028 0-65.238772-26.531793-65.238773-59.147102s29.267744-59.155257 65.238773-59.155256z" fill="#6E6E96" p-id="16870"></path><path d="M74.680046 848.613716h360.917197c44.851656 0 81.548465-33.956781 81.548465-75.456795 0-41.508169-36.696809-75.46495-81.548465-75.46495H74.680046" fill="#F0F0FF" p-id="16871"></path><path d="M74.680046 850.652428h360.917197c46.091193 0 83.587177-34.764111 83.587177-77.495507s-37.495984-77.503661-83.587177-77.503661H74.680046v4.077423h360.917197c43.840455 0 79.509754 32.937425 79.509754 73.426238 0 40.484736-35.669299 73.418083-79.509754 73.418083H74.680046v4.077424z" fill="#6E6E96" p-id="16872"></path><path d="M74.680046 864.923409h360.917197c53.956542 0 97.858158-41.169743 97.858158-91.766488 0-50.600823-43.901616-91.774643-97.858158-91.774643H74.680046v32.619386h360.917197c35.971028 0 65.238772 26.539948 65.238772 59.155257s-29.267744 59.147102-65.238772 59.147102H74.680046v32.619386z" fill="#6E6E96" p-id="16873"></path><path d="M852.95821 735.579388c11.983547 58.066585-17.076249 67.057303-30.654068 68.186749h-316.93811v32.619387H871.816293v-32.619387h-1.496414c21.227065-33.051593-17.361668-68.186749-17.361669-68.186749z" fill="#6E6E96" opacity=".15" p-id="16874"></path><path d="M949.319954 983.22169h-360.917197c-35.971028 0-65.238772-26.535871-65.238772-59.155257 0-32.615309 29.267744-59.151179 65.238772-59.151179h360.917197v-32.619386h-360.917197c-53.960619 0-97.858158 41.169743-97.858158 91.770565 0 50.6049 43.897539 91.774643 97.858158 91.774643h360.917197v-32.619386z" fill="#6E6E96" p-id="16875"></path><path d="M602.384241 894.87616h346.935713v-44.231887H527.628763v44.231887h-14.650181s-5.736935 85.226301 47.269567 93.381148 48.929079-6.797065 48.92908-6.797065-46.88629-13.594129-46.886291-46.890367 40.093303-39.693715 40.093303-39.693716zM491.404935 742.511008v-46.34807H74.680046v46.34807h340.081564s49.104408 0.632001 49.104408 43.783371-59.681244 45.96887-59.681244 45.96887c37.039313 17.700094 105.809134-10.262874 105.809134-44.480611 0-34.221813-18.588973-45.27163-18.588973-45.27163z" fill="#6E6E96" opacity=".15" p-id="16876"></path><path d="M448.192403 620.375872c4.375075 6.242535 6.523877 8.741995-9.82659 20.187322-16.350467 11.453482-33.145374 15.673615-37.520448 9.427003-4.375075-6.242535-4.379153-20.595065 11.971314-32.040392 16.350467-11.449405 31.004726-3.820546 35.375724 2.426067z" fill="#FFFFFF" opacity=".58" p-id="16877"></path><path d="M287.546004 24.46454v224.57224c0-0.318039 0.008155-0.632001 0.028542-0.950039-0.232413 3.97141-4.949992 98.021255 57.997269 164.748287 39.59178 41.968918 105.058888 71.852353 169.025504 63.248989 0.685007-0.089703 1.386324-0.044852 2.071331-0.130477 1.949008-0.2528 194.203592-27.204568 194.203592-226.912682V24.46454a16.309693 16.309693 0 0 0-16.309693-16.309693H303.855697a16.309693 16.309693 0 0 0-16.309693 16.309693z m390.702775 0v224.57224c0 171.34148-158.962423 193.693915-165.730946 194.562406 0.689085-0.085626 1.382246-0.130478 2.079486-0.130477-57.255177 5.969348-112.11283-17.838727-145.294901-53.014658C315.900406 333.847184 320.091997 250.818614 320.136849 249.98682c0.01631-0.318039 0.028542-0.632001 0.028541-0.945962V24.46454a16.309693 16.309693 0 0 1-16.309693 16.309693h390.702775a16.309693 16.309693 0 0 1-16.309693-16.309693z" fill="#6E6E96" p-id="16878"></path><path d="M418.219265 98.1395l-20.387116 57.083926-44.851656 10.193558 44.851656 14.270982 18.348404 93.780735 22.425828-93.780735 42.812945-14.270982-42.812945-10.193558z" fill="#FFFFFF" p-id="16879"></path><path d="M877.055782 487.305086l-13.916246 38.963857-30.617371 6.956084 30.617371 9.745041 13.81431 64.003313 14.014104-64.003313 29.218815-9.745041-29.218815-6.956084z" fill="#6E6E96" opacity=".46" p-id="16880"></path><path d="M145.651675 369.059811l-19.094573 53.463174-42.005615 9.545248 42.005615 13.365794 18.960018 87.823619 19.220973-87.823619 40.097381-13.365794-40.097381-9.545248z" fill="#6E6E96" opacity=".84" p-id="16881"></path></svg>